<svg version="1.1" xmlns="http://www.w3.org/2000/svg" xmlns:xlink="http://www.w3.org/1999/xlink" width="918" height="746"><desc>participant%20Discovery%20Agent%0Aparticipant%20Service%0Aparticipant%20Discovery%20Master%0Adatabase%3A1%20SQLite%0A%0Aactivate%20Discovery%20Agent%0ADiscovery%20Agent-%3EService%3A%20gRPC%20call%20for%20ServerReflectionInfo%0Aactivate%20Service%0AService--%3EDiscovery%20Agent%3A%20Return%20list%20of%20implemented%20proto%20files%0Adeactivate%20Service%0ADiscovery%20Agent-%3EDiscovery%20Master%3A%20gRPC%20call%20for%20RegisterService%0Aactivate%20Discovery%20Master%0ADiscovery%20Master-%3ESQLite%3A%20Add%20implemented%20service%0ADiscovery%20Master--%3EDiscovery%20Agent%3A%20gRPC%20Status%3A%20OK%0Adeactivate%20Discovery%20Master%0ADiscovery%20Agent-%3EService%3A%20gRPC%20call%20for%20Health%20Check%20for%20services%20implemented%0Aactivate%20Service%0Abreak%20exception%0AService--%3EDiscovery%20Agent%3A%20gRPC%20Status%3A%20NOT_SERVING%0Adeactivate%20Service%0ADiscovery%20Agent-%3EDiscovery%20Master%3A%20gRPC%20call%20for%20UnregisterService%0Aactivate%20Discovery%20Master%0ADiscovery%20Master-%3ESQLite%3A%20Set%20IsAlive%20as%20False%0ADiscovery%20Master--%3EDiscovery%20Agent%3A%20gRPC%20Status%3A%20OK%0Adeactivate%20Discovery%20Master%0ADiscovery%20Agent-%3EDiscovery%20Agent%3A%20Exit%20Status%201%0Adeactivate%20Discovery%20Agent%0Aend%0A%0A</desc><defs/><g><g/><g/><g/><g/><g/><g/><g/><g/><g/><g/><g/><g><rect fill="white" stroke="none" x="0" y="0" width="918" height="746"/></g><g/><g><path fill="none" stroke="black" paint-order="fill stroke markers" d=" M 81.67601649999999 88.04674578699999 L 81.67601649999999 746.3554387769999" stroke-miterlimit="10" stroke-width="1.3612669416666667" stroke-dasharray="12.565541,5.445067766666667"/><path fill="none" stroke="black" paint-order="fill stroke markers" d=" M 487.0261686716146 88.04674578699999 L 487.0261686716146 746.3554387769999" stroke-miterlimit="10" stroke-width="1.3612669416666667" stroke-dasharray="12.565541,5.445067766666667"/><path fill="none" stroke="black" paint-order="fill stroke markers" d=" M 628.6097369103516 88.04674578699999 L 628.6097369103516 746.3554387769999" stroke-miterlimit="10" stroke-width="1.3612669416666667" stroke-dasharray="12.565541,5.445067766666667"/><path fill="none" stroke="black" paint-order="fill stroke markers" d=" M 844.933370195638 88.04674578699999 L 844.933370195638 746.3554387769999" stroke-miterlimit="10" stroke-width="1.3612669416666667" stroke-dasharray="12.565541,5.445067766666667"/></g><g><path fill="none" stroke="none"/><g><path fill="white" stroke="black" paint-order="fill stroke markers" d=" M 10.584416256414045 43.941696877 L 152.76761674358593 43.941696877 L 152.76761674358593 88.04674578699999 L 10.584416256414045 88.04674578699999 L 10.584416256414045 43.941696877 Z" stroke-miterlimit="10" stroke-width="2.613632528" stroke-dasharray=""/></g><g><g/><text fill="black" stroke="none" font-family="sans-serif" font-size="11pt" font-style="normal" font-weight="normal" text-decoration="normal" x="28.30811183691405" y="71.711542487" text-anchor="start" dominant-baseline="alphabetic" xml:space="preserve">Discovery Agent</text></g><path fill="none" stroke="none"/><g><path fill="white" stroke="black" paint-order="fill stroke markers" d=" M 444.8608303298841 43.941696877 L 529.191507013345 43.941696877 L 529.191507013345 88.04674578699999 L 444.8608303298841 88.04674578699999 L 444.8608303298841 43.941696877 Z" stroke-miterlimit="10" stroke-width="2.613632528" stroke-dasharray=""/></g><g><g/><text fill="black" stroke="none" font-family="sans-serif" font-size="11pt" font-style="normal" font-weight="normal" text-decoration="normal" x="462.5845259103841" y="71.711542487" text-anchor="start" dominant-baseline="alphabetic" xml:space="preserve">Service</text></g><path fill="none" stroke="none"/><g><path fill="white" stroke="black" paint-order="fill stroke markers" d=" M 554.2718979582695 43.941696877 L 702.9475758624336 43.941696877 L 702.9475758624336 88.04674578699999 L 554.2718979582695 88.04674578699999 L 554.2718979582695 43.941696877 Z" stroke-miterlimit="10" stroke-width="2.613632528" stroke-dasharray=""/></g><g><g/><text fill="black" stroke="none" font-family="sans-serif" font-size="11pt" font-style="normal" font-weight="normal" text-decoration="normal" x="571.9955935387695" y="71.711542487" text-anchor="start" dominant-baseline="alphabetic" xml:space="preserve">Discovery Master</text></g><g><path fill="white" stroke="black" paint-order="fill stroke markers" d=" M 821.083973377638 56.029747319 L 821.083973377638 21.725820389 L 868.7827670136379 21.725820389 L 868.7827670136379 56.029747319" stroke-miterlimit="10" stroke-width="2.7769845610000004" stroke-dasharray=""/><path fill="white" stroke="black" paint-order="fill stroke markers" d=" M 868.7827670136379 20.5333505481 L 868.7815745537342 20.64116109301662 L 868.7779972932682 20.748960856968594 L 868.7720355899629 20.85673906006935 L 868.7636900399835 20.964484924588405 L 868.7529614778783 21.072187676029085 L 868.7398509764945 21.179836544206 L 868.7243598468713 21.287420764322043 L 868.7064896381087 21.394929578044856 L 868.6862421372126 21.502352234582652 L 868.6636193689164 21.6096779917593 L 868.6386235954781 21.716896117088513 L 868.611257316454 21.82399588884712 L 868.5815232684495 21.93096659714718 L 868.5494244248443 22.037797545007013 L 868.5149639954963 22.144478049420858 L 868.4781454264195 22.250997442427174 L 868.4389723994401 22.357345072175423 L 868.3974488318283 22.463510303991256 L 868.3535788759064 22.56948252143996 L 868.307366918633 22.6752511273881 L 868.2588175811657 22.780805545063224 L 868.2079357183976 22.886135219111527 L 868.1547264184727 22.991229616653374 L 868.0991950022765 23.09607822833659 L 868.0413470229045 23.200670569387384 L 867.9811882651063 23.304996180658804 L 867.9187247447077 23.40904462967667 L 867.8539627080085 23.51280551168278 L 867.7869086311584 23.616268450675403 L 867.7175692195095 23.719423100446857 L 867.6459514069448 23.82225914561813 L 867.5720623551862 23.9247663026704 L 867.4959094530772 24.026934320973382 L 867.4175003158443 24.128752983810383 L 867.3368427843362 24.230212109399975 L 867.2539449242388 24.331301551914144 L 867.1688150252689 24.432011202492884 L 867.0814616003455 24.532330990255055 L 866.9918933847383 24.63225088330548 L 866.9001193351943 24.731760889738126 L 866.8061486290419 24.830851058635275 L 866.7099906632733 24.929511481062605 L 866.6116550536052 25.027732291060094 L 866.5111516335164 25.125503666628596 L 866.4084904532652 25.222815830712022 L 866.3036817788842 25.319659052175062 L 866.1967360911533 25.416023646776274 L 866.0876640845523 25.511899978136498 L 865.976476666191 25.607278458702496 L 865.8631849547185 25.70214955070569 L 865.7478002792116 25.796503767115947 L 865.6303341780415 25.890331672590246 L 865.5107983977206 25.983623884416232 L 865.3892048917273 26.076371073450467 L 865.265565819311 26.168563965051334 L 865.1398935442755 26.260193340006502 L 865.0122006337441 26.351250035454832 L 864.8824998569011 26.44172494580266 L 864.7508041837161 26.531609023634346 L 864.6171267836469 26.62089328061701 L 864.481481024322 26.709568788399363 L 864.3438804702041 26.79762667950451 L 864.2043388812342 26.885058148216736 L 864.0628702114549 26.97185445146202 L 863.9194886076151 27.05800690968237 L 863.774208407756 27.143506907703753 L 863.6270441397761 27.228345895597624 L 863.47801051998 27.31251538953589 L 863.3271224516051 27.3960069726393 L 863.1743950233327 27.47881229581911 L 863.0198435077785 27.56092307861202 L 862.863483359965 27.64233111000817 L 862.7053302157767 27.723028249272257 L 862.5453998903964 27.803006426757605 L 862.3837083767232 27.882257644713114 L 862.220271843774 27.96077397808303 L 862.0551066350654 28.038547575299447 L 861.888229266981 28.115570659067455 L 861.7196564271186 28.19183552714286 L 861.5494049726215 28.267334553102412 L 861.3774919284933 28.34206018710643 L 861.2039344858953 28.416004956653783 L 861.028750000427 28.489161467329136 L 860.8519559903909 28.561522403542384 L 860.6735701350409 28.633080529260212 L 860.4936102728136 28.70382868872968 L 860.3120943995456 28.773759807193787 L 860.1290406666726 28.842866891598973 L 859.9444673794156 28.911143031294383 L 859.7583929949494 28.978581398722945 L 859.5708361205575 29.045175250104112 L 859.3818155117708 29.110917926108243 L 859.191350070493 29.175802852522523 L 858.9994588431091 29.239823540908375 L 858.8061610185823 29.30297358925032 L 858.6114759265338 29.365246682596148 L 858.4154230353106 29.426636593688414 L 858.2180219500384 29.487137183587166 L 858.0192924106614 29.546742402283833 L 857.8192542899676 29.605446289306215 L 857.6179275916027 29.663242974314535 L 857.4153324480686 29.720126677688448 L 857.2114891187108 29.776091711105025 L 857.0064179876925 29.831132478107563 L 856.8001395619558 29.885243474665224 L 856.5926744691715 29.938419289723445 L 856.3840434556757 29.990654605745036 L 856.1742673843963 30.041944199241925 L 855.9633672327653 30.092282941297498 L 855.7513640906222 30.1416657980795 L 855.5382791581046 30.190087831343412 L 855.3241337435283 30.23754419892625 L 855.1089492612559 30.28403015523081 L 854.8927472295567 30.329541051700197 L 854.6755492684536 30.374072337282684 L 854.4573770975616 30.417619558886827 L 854.238252533916 30.460178361826756 L 854.0181974897906 30.501744490257643 L 853.7972339705066 30.54231378760128 L 853.5753840722316 30.581882196961743 L 853.3526699797706 30.620445761531066 L 853.1291139643471 30.658000624984936 L 852.9047383813767 30.694543031868292 L 852.6795656682303 30.730069327970906 L 852.453618341992 30.764575960692767 L 852.2269189972058 30.798059479399367 L 851.9994903036173 30.830516535766726 L 851.7713550039065 30.86194388411627 L 851.5425359114132 30.892338381739336 L 851.3130559078559 30.921696989211505 L 851.0829379410438 30.950016770696486 L 850.8522050225818 30.977294894239733 L 850.6208802255694 31.003528632051626 L 850.3889866822935 31.028715360780247 L 850.1565475819154 31.052852561773705 L 849.9235861681514 31.075937821332012 L 849.6901257369484 31.097968830948464 L 849.4561896341554 31.118943387540448 L 849.2218012531874 31.138859393669783 L 848.9869840326875 31.15771485775246 L 848.7517614541819 31.175507894257777 L 848.5161570397322 31.19223672389691 L 848.2801943495839 31.207899673800846 L 848.0438969798092 31.222495177687634 L 847.8072885599482 31.236021776019058 L 847.5703927506456 31.24847811614655 L 847.3332332412851 31.259862952446483 L 847.09583374762 31.27017514644471 L 846.8582180094015 31.279413666930427 L 846.6204097880059 31.287577590059286 L 846.3824328640568 31.29466609944577 L 846.1443110350484 31.300678486244855 L 845.9060681129653 31.30561414922287 L 845.6677279219009 31.309472594817628 L 845.4293142956759 31.31225343718779 L 845.1908510754541 31.313956398251428 L 844.952362107359 31.31458130771386 L 844.7138712400885 31.314128103084656 L 844.4754023225306 31.312596829683912 L 844.2369792013784 31.30998764063768 L 843.9986257187454 31.306300796862697 L 843.760365709781 31.301536667040267 L 843.5222230002878 31.2956957275794 L 843.2842214043382 31.288778562569174 L 843.0463847218933 31.280785863720332 L 842.8087367364234 31.27171843029609 L 842.5713012125289 31.261577169032243 L 842.3341018935641 31.25036309404646 L 842.0971624992637 31.238077326736896 L 841.8605067233694 31.224721095670045 L 841.6241582312616 31.21029573645788 L 841.3881406575925 31.194802691624307 L 841.152477603923 31.178243510460895 L 840.9171926363618 31.16061984887196 L 840.6823092832099 31.14193346920898 L 840.4478510326065 31.12218624009434 L 840.2138413301817 31.101380136234503 L 839.9803035767103 31.079517238222515 L 839.7472611257734 31.056599732329957 L 839.5147372814217 31.03262991028832 L 839.2827552958458 31.007610169059838 L 839.0513383670512 30.98154301059778 L 838.8205096365377 30.954431041596266 L 838.5902921869862 30.926276973229612 L 838.3607090399496 30.897083620881187 L 838.1317831535513 30.866853903861898 L 837.9035374201893 30.835590845118258 L 837.6759946642467 30.803297570930084 L 837.4491776398094 30.769977310597895 L 837.2231090283909 30.735633396119944 L 836.9978114366639 30.70026926185907 L 836.7733073941998 30.663888444199216 L 836.5496193512159 30.62649458119185 L 836.3267696763301 30.588091412192092 L 836.1047806543239 30.54868277748485 L 835.8836744839149 30.50827261790075 L 835.6634732755355 30.46686497442208 L 835.4441990491233 30.42446398777868 L 835.2258737319181 30.381073898033875 L 835.0085191562697 30.33669904416049 L 834.7921570574547 30.291343863606926 L 834.5768090715023 30.245012891853445 L 834.3624967330321 30.197710761958614 L 834.149241473099 30.149442204096005 L 833.9370646170515 30.10021204508118 L 833.7259873823982 30.050025207889014 L 833.5160308766868 29.998886711161404 L 833.307216095393 29.94680166870541 L 833.0995639198206 29.893775288981875 L 832.8930951150145 29.839812874584574 L 832.6878303276828 29.784919821709988 L 832.4837900841334 29.729101619617655 L 832.2809947882204 29.67236385008127 L 832.0794647193046 29.61471218683051 L 831.8792200302249 29.55615239498365 L 831.6802807452833 29.496690330471075 L 831.4826667582425 29.43633193944969 L 831.2863978303367 29.375083257708297 L 831.0914935882948 29.312950410064026 L 830.897973522379 29.249939609749873 L 830.7058569844341 29.186057157793353 L 830.5151631859544 29.121309442386426 L 830.3259111961604 29.055702938246682 L 830.1381199400935 28.98924420596986 L 829.9518081967228 28.921939891373807 L 829.7669945970674 28.85379672483389 L 829.5836976223334 28.784821520609988 L 829.4019356020651 28.71502117616503 L 829.2217267123136 28.644402671475305 L 829.0430889738174 28.572973068332434 L 828.8660402502014 28.5007395096372 L 828.6905982461906 28.42770921868528 L 828.5167805058392 28.353889498444914 L 828.3446044107762 28.279287730826603 L 828.1740871784679 28.20391137594495 L 828.0052458604953 28.127767971372624 L 827.8380973408493 28.05086513138663 L 827.672658334243 27.973210546206882 L 827.5089453844388 27.894811981227186 L 827.3469748625955 27.81567727623871 L 827.1867629656302 27.735814344646005 L 827.0283257145991 27.655231172675677 L 826.8716789530953 27.573935818577773 L 826.7168383456644 27.491936411819957 L 826.5638193762381 27.409241152274568 L 826.4126373465858 27.325858309398654 L 826.2633073747845 27.241796221407014 L 826.115844393707 27.157063294438398 L 825.9702631495285 27.07166800171489 L 825.826578200252 26.985618882694595 L 825.6848039142528 26.89892454221772 L 825.5449544688414 26.811593649646056 L 825.4070438488457 26.723634937996092 L 825.2710858452126 26.63505720306569 L 825.1370940536295 26.54586930255453 L 825.0050818731638 26.45608015517834 L 824.8750625049234 26.365698739777034 L 824.7470489507369 26.274734094416832 L 824.6210540118531 26.183195315486472 L 824.4970902876607 26.09109155678756 L 824.3751701744291 25.998432028619217 L 824.2553058640676 25.90522599685704 L 824.1375093429077 25.811482782026534 L 824.0217923905033 25.717211758371064 L 823.908166578453 25.62242235291444 L 823.7966432692436 25.527124044518214 L 823.687233615113 25.431326362933806 L 823.5799485569353 25.33503888784955 L 823.474798823127 25.238271247932712 L 823.371794928574 25.141033119866645 L 823.2709471735797 25.043334227383127 L 823.1722656428356 24.945184340289984 L 823.0757602044126 24.84659327349414 L 822.9814405087742 24.74757088602011 L 822.8893159878112 24.648127080024132 L 822.799395853899 24.548271799803928 L 822.7116890989761 24.448015030804306 L 822.6262044936448 24.34736679861863 L 822.5429505862945 24.246337167986233 L 822.4619357022465 24.144936241786 L 822.3831679429217 24.043174160026034 L 822.3066551850304 23.941061098829724 L 822.2324050797846 23.83860726941809 L 822.1604250521331 23.735822917088697 L 822.0907223000183 23.63271832019112 L 822.0233037936579 23.52930378909913 L 821.9581762748459 23.425589665179665 L 821.8953462562799 23.32158631975868 L 821.8348200209098 23.21730415308405 L 821.7766036213083 23.112753593285547 L 821.7207028790671 23.00794509533202 L 821.6671233842136 22.90288913998592 L 821.6158704946528 22.797596232755243 L 821.566949335631 22.692076902842967 L 821.5203647992231 22.58634170209415 L 821.4761215438442 22.48040120394075 L 821.4342239937828 22.374266002344307 L 821.394676338759 22.267946710736528 L 821.3574825335054 22.161453960957978 L 821.3226462973715 22.05479840219489 L 821.2901711139518 21.94799069991426 L 821.2600602307378 21.841041534797313 L 821.2323166587926 21.733961601671435 L 821.2069431724502 21.62676160844071 L 821.1839423090382 21.51945227501512 L 821.1633163686238 21.412044332238587 L 821.1450674137836 21.30454852081588 L 821.1291972693982 21.19697559023857 L 821.1157075224687 21.08933629771006 L 821.1045995219584 20.98164140706991 L 821.0958743786584 20.87390168771744 L 821.0895329650755 20.7661279135348 L 821.0855759153459 20.658330861809592 L 821.0840036251711 20.55052131215717 L 821.0848162517791 20.442710045442645 L 821.0880137139077 20.334907842702854 L 821.0935956918133 20.227125484068235 L 821.101561627303 20.119373747684833 L 821.1119107237897 20.011663408636494 L 821.1246419463725 19.904005237867363 L 821.1397540219397 19.7964100011048 L 821.1572454392963 19.688888457782824 L 821.177114449315 19.581451359966163 L 821.1993590651117 19.47410945127507 L 821.2239770622432 19.366873465810958 L 821.2509659789301 19.259754127083017 L 821.2803231163035 19.15276214693585 L 821.312045538674 19.04590822447831 L 821.346130073826 18.939203045013606 L 821.382573313334 18.832657278970757 L 821.4213716129047 18.72628158083758 L 821.4625210927404 18.620086588095244 L 821.5060176379275 18.51408292015453 L 821.5518568988475 18.408281177293887 L 821.6000342916127 18.302691939599445 L 821.650544998524 18.197325765906974 L 821.7033839685525 18.092193192746045 L 821.7585459178457 17.987304733286358 L 821.8160253302543 17.882670876286454 L 821.8758164578851 17.77830208504484 L 821.937913321675 17.674208796353664 L 822.0023097119895 17.570401419455052 L 822.0689991892433 17.46689033500019 L 822.1379750845441 17.36368589401126 L 822.2092305003599 17.260798416846367 L 822.2827583112086 17.158238192167477 L 822.3585511643702 17.056015475911597 L 822.4366014806226 16.954140490265164 L 822.5169014549994 16.85262342264185 L 822.5994430575697 16.751474424663822 L 822.6842180342425 16.650703611146586 L 822.7712179075904 16.550321059087512 L 822.8604339776988 16.450336806658164 L 822.9518573230349 16.35076085220046 L 823.0454788013404 16.25160315322686 L 823.1412890505454 16.15287362542464 L 823.239278489705 16.054582141664305 L 823.3394373199569 15.956738531012315 L 823.4417555255014 15.859352577748204 L 823.5462228746032 15.762434020386143 L 823.6528289206148 15.665992550701102 L 823.76156300302 15.570037812759686 L 823.8724142485013 15.47457940195572 L 823.9853715720267 15.379626864050742 L 824.1004236779578 15.285189694219413 L 824.2175590611799 15.191277336100018 L 824.3367660082523 15.097899180850114 L 824.4580325985797 15.005064566207405 L 824.5813467056041 14.912782775555993 L 824.7066959980176 14.821063036998048 L 824.8340679409953 14.729914522430988 L 824.9634497974491 14.639346346630315 L 825.0948286293012 14.549367566338134 L 825.2281912987778 14.459987179357494 L 825.3635244697232 14.371214123652608 L 825.5008146089331 14.283057276455072 L 825.6400479875078 14.195525453376138 L 825.7812106822257 14.108627407525177 L 825.9242885769348 14.022371828634352 L 826.069267363965 13.936767342189675 L 826.2161325455583 13.851822508568457 L 826.364869435319 13.76754582218327 L 826.5154631596819 13.683945710632521 L 826.6678986594003 13.601030533857704 L 826.8221606910511 13.518808583307395 L 826.9782338285597 13.437288081108132 L 827.1361024647425 13.356477179242205 L 827.2957508128675 13.276383958732454 L 827.4571629082326 13.19701642883419 L 827.6203226097631 13.11838252623426 L 827.7852136016246 13.040490114257395 L 827.9518193948555 12.963346982079887 L 828.1201233290153 12.886960843950664 L 828.2901085738506 12.811339338419888 L 828.4617581309789 12.73649002757509 L 828.6350548355873 12.662420396284984 L 828.8099813581498 12.589137851450971 L 828.98652020616 12.516649721266472 L 829.16465372588 12.444963254484088 L 829.3443641041066 12.37408561969077 L 829.5256333699515 12.304023904590924 L 829.7084433966392 12.234785115297683 L 829.8927759033194 12.166376175632273 L 830.0786124568951 12.098803926431655 L 830.2659344738657 12.032075124864438 L 830.4547232221856 11.966196443755171 L 830.6449598231375 11.901174470917068 L 830.8366252532196 11.837015708493228 L 831.0297003460487 11.773726572306426 L 831.2241657942764 11.71131339121754 L 831.42000215152 11.64978240649267 L 831.6171898343067 11.589139771179015 L 831.815709124033 11.529391549489564 L 832.015540168935 11.470543716196701 L 832.2166629860748 11.412602156034716 L 832.4190574633384 11.355572663111337 L 832.6227033614467 11.299460940328336 L 832.8275803159795 11.244272598811229 L 833.0336678394121 11.190013157348178 L 833.240945323164 11.136688041838113 L 833.4493920396595 11.084302584748148 L 833.6589871444007 11.03286202458034 L 833.8697096780517 10.982371505347833 L 834.0815385685347 10.932836076060482 L 834.2944526331373 10.88426069021993 L 834.5084305806305 10.836650205324288 L 834.7234510133977 10.790009382382364 L 834.9394924295749 10.74434288543759 L 835.1565332252004 10.6996552811016 L 835.3745516963758 10.655951038097594 L 835.5935260414353 10.613234526813446 L 835.813434363127 10.571510018864695 L 836.0342546708023 10.530781686667359 L 836.255964882614 10.49105360302072 L 836.4785428277258 10.452329740700035 L 836.7019662485288 10.41461397205927 L 836.926212802867 10.377910068643855 L 837.1512600662719 10.342221700813546 L 837.3770855342046 10.307552437375389 L 837.6036666243067 10.273905745226832 L 837.8309806786579 10.241284989009054 L 838.0590049660419 10.209693430770495 L 838.2877166842204 10.179134229640646 L 838.517092962212 10.14961044151416 L 838.7471108625801 10.121125018745243 L 838.9777473837263 10.093680809852438 L 839.2089794621907 10.067280559233762 L 839.440783974958 10.041926906892275 L 839.6731377417703 10.017622388172084 L 839.9060175274445 9.99436943350481 L 840.1394000441961 9.972170368166541 L 840.3732619539679 9.95102741204531 L 840.6075798707637 9.930942679419111 L 840.8423303629872 9.91191817874447 L 841.0774899557848 9.893955812455602 L 841.3130351333932 9.877057376774163 L 841.5489423414908 9.861224561529642 L 841.7851879895536 9.846458949990371 L 842.0217484532134 9.832762018705198 L 842.2586000766212 9.820135137355836 L 842.4957191748118 9.808579568619898 L 842.7330820360733 9.798096468044628 L 842.970664924317 9.78868688393135 L 843.2084440814523 9.780351757230632 L 843.4463957297617 9.773091921448197 L 843.6844960742784 9.766908102561576 L 843.9227213051665 9.761800918947504 L 844.1610476001016 9.757770881320084 L 844.3994511266526 9.754818392679725 L 844.6379080446654 9.752943748272825 L 844.8763945086473 9.752147135562266 L 845.1148866701503 9.752428634208655 L 845.3533606801572 9.753788216062361 L 845.5917926914656 9.756225745166333 L 845.8301588610731 9.75974097776969 L 846.0684353525613 9.764333562352103 L 846.3065983384798 9.770003039658938 L 846.5446240027284 9.776748842747192 L 846.7824885429388 9.784570297042176 L 847.0201681728555 9.793466620404978 L 847.2576391247136 9.803436923210677 L 847.4948776516155 9.8144802084373 L 847.7318600299064 9.826595371765528 L 847.968562561546 9.83978120168912 L 848.2049615764784 9.854036379636078 L 848.441033434999 9.869359480100481 L 848.6767545301186 9.885748970785057 L 848.9121012899243 9.903203212754391 L 849.1470501799362 9.921720460598834 L 849.3815777054609 9.941298862609031 L 849.6156604139417 9.961936460961097 L 849.8492748973024 9.983631191912394 L 850.0823977942895 10.006380886007905 L 850.3150057928076 10.030183268297183 L 850.5470756322507 10.055035958561827 L 850.7785841058281 10.080936471553528 L 851.0095080628856 10.107882217242567 L 851.2398244112198 10.13587050107683 L 851.4695101193878 10.164898524251257 L 851.6985422190102 10.194963383987721 L 851.9268978070678 10.226062073825304 L 852.1545540481923 10.258191483920934 L 852.381488176949 10.291348401360379 L 852.6076775001144 10.325529510479525 L 852.8330993989447 10.360731393195941 L 853.0577313314376 10.396950529350695 L 853.2815508345873 10.434183297060352 L 853.5045355266299 10.472425973079169 L 853.7266631092818 10.51167473317141 L 853.9479113699704 10.551925652493777 L 854.1682581840535 10.593174705987877 L 854.3876815170333 10.635417768782737 L 854.6061594267597 10.678650616607278 L 854.8236700656237 10.722868926212747 L 855.0401916827425 10.76806827580503 L 855.2557026261348 10.814244145486835 L 855.4701813448861 10.861391917709673 L 855.6836063913031 10.909506877735609 L 855.895956423059 10.95858421410874 L 856.1072102053278 11.008619019136324 L 856.3173466129069 11.059606289379555 L 856.526344632331 11.111540926153898 L 856.7341833639722 11.164417736038953 L 856.9408420241305 11.218231431397797 L 857.1462999471122 11.272976630905736 L 857.3505365872961 11.328647860088443 L 857.5535315211885 11.385239551869391 L 857.755264449465 11.442746047126562 L 857.9557151990011 11.501161595258353 L 858.1548637248887 11.560480354758626 L 858.3526901124413 11.620696393800868 L 858.549174579185 11.681803690831353 L 858.7442974768368 11.7437961351713 L 858.9380392932695 11.806667527627935 L 859.1303806544629 11.870411581114405 L 859.3213023264414 11.935021921278484 L 859.5107852171965 12.000492087139994 L 859.6988103785974 12.066815531736909 L 859.8853590082845 12.133985622780036 L 860.0704124515502 12.201995643316248 L 860.2539522032044 12.270838792400168 L 860.4359599094252 12.340508185774253 L 860.6164173695933 12.410996856557224 L 860.7953065381131 12.482297755940746 L 860.9726095262168 12.554403753894292 L 861.1483086037537 12.627307639878161 L 861.322386200962 12.701002123564503 L 861.4948249102273 12.775479835566365 L 861.6656074878223 12.85073332817461 L 861.8347168556315 12.926755076102687 L 862.0021361028591 13.003537477239155 L 862.16784848772 13.081072853407886 L 862.3318374391137 13.159353451135875 L 862.4940865582817 13.238371442428583 L 862.6545796204473 13.318118925552731 L 862.8133005764381 13.398587925826458 L 862.9702335542906 13.4797703964168 L 863.125362860838 13.561658219144345 L 863.2786729832789 13.64424320529506 L 863.4301485907285 13.727517096439154 L 863.5797745357527 13.811471565256904 L 863.7275358558815 13.89609821637139 L 863.873417775106 13.981388587188025 L 864.0174057053558 14.0673341487408 L 864.1594852479581 14.153926306545182 L 864.2996421950768 14.241156401457552 L 864.437862531134 14.329015710541107 L 864.5741324342114 14.417495447938157 L 864.7084382774322 14.506586765748693 L 864.840766630324 14.59628075491518 L 864.9711042601616 14.68656844611344 L 865.099438133291 14.777440810649601 L 865.2257554164316 14.868888761362928 L 865.3500434779603 14.96090315353456 L 865.4722898891747 15.05347478580196 L 865.5924824255354 15.146594401079039 L 865.7106090678891 15.240252687481874 L 865.8266580036698 15.33444027925987 L 865.9406176280806 15.429147757732338 L 866.0524765452543 15.524365652230356 L 866.1622235693922 15.62008444104382 L 866.2698477258833 15.716294552373615 L 866.3753382524018 15.812986365288783 L 866.4786845999828 15.910150210688608 L 866.5798764340777 16.00777637226952 L 866.6789036355876 16.105855087496717 L 866.7757563018746 16.204376548580406 L 866.870424747753 16.30333090345658 L 866.9628995064569 16.402708256772215 L 867.0531713305877 16.502498670874793 L 867.141231193038 16.602692166806058 L 867.2270702878951 16.703278725299917 L 867.3106800313211 16.80424828778434 L 867.392052062411 16.90559075738722 L 867.4711782440299 17.00729599994605 L 867.5480506636254 17.10935384502132 L 867.6226616340196 17.211754086913583 L 867.6950036941776 17.314486485683975 L 867.7650696099538 17.41754076817823 L 867.8328523748148 17.52090662905398 L 867.8983452105408 17.62457373181127 L 867.9615415679027 17.728531709826218 L 868.0224351273174 17.83277016738765 L 868.0810197994798 17.93727868073668 L 868.1372897259714 18.04204679910906 L 868.1912392798466 18.147064045780258 L 868.2428630661949 18.252319919113123 L 868.2921559226805 18.357803893608033 L 868.3391129200592 18.463505420955443 L 868.38372936267 18.569413931090704 L 868.4260007889061 18.675518833251058 L 868.4659229716599 18.781809517034706 L 868.5034919187466 18.88827535346185 L 868.5387038733026 18.994905696037566 L 868.571555314162 19.101689881816455 L 868.6020429562078 19.208617232468924 L 868.6301637507015 19.31567705534902 L 868.6559148855869 19.422858644563664 L 868.6792937857721 19.530151282043253 L 868.7002981133863 19.637544238613454 L 868.7189257680146 19.745026775068098 L 868.7351748869069 19.852588143243114 L 868.7490438451648 19.960217587091314 L 868.7605312559041 20.067904343758006 L 868.7696359703932 20.17563764465726 L 868.7763570781684 20.283406716548765 L 868.7806939071244 20.39120078261514 L 868.782646023582 20.49900906353961 M 868.7827670136379 54.8372774781 L 868.7815745537342 54.94508802301662 L 868.7779972932682 55.05288778696859 L 868.7720355899629 55.160665990069354 L 868.7636900399835 55.2684118545884 L 868.7529614778783 55.376114606029084 L 868.7398509764945 55.483763474206 L 868.7243598468713 55.591347694322046 L 868.7064896381087 55.698856508044855 L 868.6862421372126 55.80627916458265 L 868.6636193689164 55.913604921759294 L 868.6386235954781 56.02082304708851 L 868.611257316454 56.12792281884712 L 868.5815232684495 56.23489352714718 L 868.5494244248443 56.34172447500701 L 868.5149639954963 56.44840497942086 L 868.4781454264195 56.55492437242717 L 868.4389723994401 56.66127200217542 L 868.3974488318283 56.76743723399125 L 868.3535788759064 56.87340945143996 L 868.307366918633 56.979178057388104 L 868.2588175811657 57.08473247506323 L 868.2079357183976 57.190062149111526 L 868.1547264184727 57.295156546653374 L 868.0991950022765 57.40000515833659 L 868.0413470229045 57.50459749938738 L 867.9811882651063 57.60892311065881 L 867.9187247447077 57.71297155967667 L 867.8539627080085 57.81673244168278 L 867.7869086311584 57.9201953806754 L 867.7175692195095 58.023350030446856 L 867.6459514069448 58.12618607561813 L 867.5720623551862 58.228693232670395 L 867.4959094530772 58.33086125097338 L 867.4175003158443 58.43267991381038 L 867.3368427843362 58.534139039399975 L 867.2539449242388 58.63522848191415 L 867.1688150252689 58.73593813249288 L 867.0814616003455 58.83625792025505 L 866.9918933847383 58.93617781330548 L 866.9001193351943 59.03568781973813 L 866.8061486290419 59.13477798863527 L 866.7099906632733 59.23343841106261 L 866.6116550536052 59.33165922106009 L 866.5111516335164 59.42943059662859 L 866.4084904532652 59.52674276071202 L 866.3036817788842 59.623585982175065 L 866.1967360911533 59.71995057677627 L 866.0876640845523 59.8158269081365 L 865.976476666191 59.9112053887025 L 865.8631849547185 60.006076480705694 L 865.7478002792116 60.10043069711595 L 865.6303341780415 60.194258602590246 L 865.5107983977206 60.287550814416235 L 865.3892048917273 60.38029800345047 L 865.265565819311 60.47249089505134 L 865.1398935442755 60.564120270006505 L 865.0122006337441 60.655176965454835 L 864.8824998569011 60.74565187580266 L 864.7508041837161 60.83553595363435 L 864.6171267836469 60.924820210617014 L 864.481481024322 61.01349571839936 L 864.3438804702041 61.10155360950451 L 864.2043388812342 61.18898507821673 L 864.0628702114549 61.27578138146202 L 863.9194886076151 61.361933839682365 L 863.774208407756 61.447433837703755 L 863.6270441397761 61.53227282559762 L 863.47801051998 61.61644231953589 L 863.3271224516051 61.699933902639295 L 863.1743950233327 61.782739225819114 L 863.0198435077785 61.86485000861202 L 862.863483359965 61.94625804000817 L 862.7053302157767 62.02695517927226 L 862.5453998903964 62.1069333567576 L 862.3837083767232 62.18618457471311 L 862.220271843774 62.26470090808303 L 862.0551066350654 62.34247450529945 L 861.888229266981 62.419497589067454 L 861.7196564271186 62.49576245714286 L 861.5494049726215 62.57126148310241 L 861.3774919284933 62.64598711710643 L 861.2039344858953 62.71993188665378 L 861.028750000427 62.793088397329136 L 860.8519559903909 62.86544933354239 L 860.6735701350409 62.937007459260215 L 860.4936102728136 63.007755618729675 L 860.3120943995456 63.07768673719379 L 860.1290406666726 63.146793821598976 L 859.9444673794156 63.21506996129438 L 859.7583929949494 63.28250832872294 L 859.5708361205575 63.34910218010411 L 859.3818155117708 63.414844856108246 L 859.191350070493 63.47972978252252 L 858.9994588431091 63.54375047090838 L 858.8061610185823 63.606900519250324 L 858.6114759265338 63.66917361259615 L 858.4154230353106 63.73056352368841 L 858.2180219500384 63.79106411358716 L 858.0192924106614 63.85066933228383 L 857.8192542899676 63.90937321930622 L 857.6179275916027 63.96716990431453 L 857.4153324480686 64.02405360768844 L 857.2114891187108 64.08001864110503 L 857.0064179876925 64.13505940810757 L 856.8001395619558 64.18917040466522 L 856.5926744691715 64.24234621972344 L 856.3840434556757 64.29458153574504 L 856.1742673843963 64.34587112924193 L 855.9633672327653 64.3962098712975 L 855.7513640906222 64.4455927280795 L 855.5382791581046 64.49401476134341 L 855.3241337435283 64.54147112892625 L 855.1089492612559 64.58795708523081 L 854.8927472295567 64.63346798170019 L 854.6755492684536 64.67799926728269 L 854.4573770975616 64.72154648888683 L 854.238252533916 64.76410529182675 L 854.0181974897906 64.80567142025764 L 853.7972339705066 64.84624071760128 L 853.5753840722316 64.88580912696175 L 853.3526699797706 64.92437269153106 L 853.1291139643471 64.96192755498494 L 852.9047383813767 64.9984699618683 L 852.6795656682303 65.0339962579709 L 852.453618341992 65.06850289069277 L 852.2269189972058 65.10198640939936 L 851.9994903036173 65.13444346576672 L 851.7713550039065 65.16587081411626 L 851.5425359114132 65.19626531173934 L 851.3130559078559 65.2256239192115 L 851.0829379410438 65.25394370069648 L 850.8522050225818 65.28122182423974 L 850.6208802255694 65.30745556205163 L 850.3889866822935 65.33264229078024 L 850.1565475819154 65.35677949177371 L 849.9235861681514 65.37986475133201 L 849.6901257369484 65.40189576094846 L 849.4561896341554 65.42287031754044 L 849.2218012531874 65.44278632366978 L 848.9869840326875 65.46164178775246 L 848.7517614541819 65.47943482425778 L 848.5161570397322 65.49616365389691 L 848.2801943495839 65.51182660380084 L 848.0438969798092 65.52642210768764 L 847.8072885599482 65.53994870601906 L 847.5703927506456 65.55240504614655 L 847.3332332412851 65.56378988244649 L 847.09583374762 65.57410207644472 L 846.8582180094015 65.58334059693043 L 846.6204097880059 65.59150452005929 L 846.3824328640568 65.59859302944577 L 846.1443110350484 65.60460541624485 L 845.9060681129653 65.60954107922286 L 845.6677279219009 65.61339952481762 L 845.4293142956759 65.61618036718778 L 845.1908510754541 65.61788332825142 L 844.952362107359 65.61850823771385 L 844.7138712400885 65.61805503308466 L 844.4754023225306 65.61652375968391 L 844.2369792013784 65.61391457063768 L 843.9986257187454 65.61022772686269 L 843.760365709781 65.60546359704027 L 843.5222230002878 65.5996226575794 L 843.2842214043382 65.59270549256917 L 843.0463847218933 65.58471279372033 L 842.8087367364234 65.5756453602961 L 842.5713012125289 65.56550409903224 L 842.3341018935641 65.55429002404645 L 842.0971624992637 65.5420042567369 L 841.8605067233694 65.52864802567004 L 841.6241582312616 65.51422266645788 L 841.3881406575925 65.4987296216243 L 841.152477603923 65.48217044046089 L 840.9171926363618 65.46454677887196 L 840.6823092832099 65.44586039920898 L 840.4478510326065 65.42611317009434 L 840.2138413301817 65.4053070662345 L 839.9803035767103 65.38344416822251 L 839.7472611257734 65.36052666232996 L 839.5147372814217 65.33655684028832 L 839.2827552958458 65.31153709905983 L 839.0513383670512 65.28546994059778 L 838.8205096365377 65.25835797159627 L 838.5902921869862 65.23020390322961 L 838.3607090399496 65.2010105508812 L 838.1317831535513 65.1707808338619 L 837.9035374201893 65.13951777511826 L 837.6759946642467 65.10722450093009 L 837.4491776398094 65.0739042405979 L 837.2231090283909 65.03956032611994 L 836.9978114366639 65.00419619185907 L 836.7733073941998 64.96781537419922 L 836.5496193512159 64.93042151119185 L 836.3267696763301 64.89201834219209 L 836.1047806543239 64.85260970748485 L 835.8836744839149 64.81219954790075 L 835.6634732755355 64.77079190442208 L 835.4441990491233 64.72839091777868 L 835.2258737319181 64.68500082803388 L 835.0085191562697 64.64062597416049 L 834.7921570574547 64.59527079360693 L 834.5768090715023 64.54893982185345 L 834.3624967330321 64.50163769195862 L 834.149241473099 64.45336913409601 L 833.9370646170515 64.40413897508118 L 833.7259873823982 64.35395213788901 L 833.5160308766868 64.3028136411614 L 833.307216095393 64.25072859870541 L 833.0995639198206 64.19770221898187 L 832.8930951150145 64.14373980458457 L 832.6878303276828 64.08884675170998 L 832.4837900841334 64.03302854961765 L 832.2809947882204 63.97629078008127 L 832.0794647193046 63.918639116830505 L 831.8792200302249 63.860079324983644 L 831.6802807452833 63.80061726047107 L 831.4826667582425 63.74025886944969 L 831.2863978303367 63.67901018770829 L 831.0914935882948 63.61687734006403 L 830.897973522379 63.553866539749876 L 830.7058569844341 63.48998408779335 L 830.5151631859544 63.42523637238643 L 830.3259111961604 63.359629868246685 L 830.1381199400935 63.29317113596986 L 829.9518081967228 63.225866821373806 L 829.7669945970674 63.15772365483389 L 829.5836976223334 63.088748450609984 L 829.4019356020651 63.018948106165034 L 829.2217267123136 62.94832960147531 L 829.0430889738174 62.87689999833243 L 828.8660402502014 62.8046664396372 L 828.6905982461906 62.73163614868528 L 828.5167805058392 62.65781642844491 L 828.3446044107762 62.583214660826606 L 828.1740871784679 62.50783830594495 L 828.0052458604953 62.43169490137262 L 827.8380973408493 62.35479206138663 L 827.672658334243 62.27713747620688 L 827.5089453844388 62.19873891122719 L 827.3469748625955 62.119604206238705 L 827.1867629656302 62.039741274646005 L 827.0283257145991 61.95915810267567 L 826.8716789530953 61.87786274857777 L 826.7168383456644 61.79586334181995 L 826.5638193762381 61.71316808227457 L 826.4126373465858 61.62978523939866 L 826.2633073747845 61.54572315140702 L 826.115844393707 61.4609902244384 L 825.9702631495285 61.375594931714886 L 825.826578200252 61.2895458126946 L 825.6848039142528 61.202851472217716 L 825.5449544688414 61.11552057964606 L 825.4070438488457 61.02756186799609 L 825.2710858452126 60.93898413306569 L 825.1370940536295 60.84979623255453 L 825.0050818731638 60.76000708517834 L 824.8750625049234 60.669625669777034 L 824.7470489507369 60.57866102441683 L 824.6210540118531 60.487122245486475 L 824.4970902876607 60.39501848678756 L 824.3751701744291 60.302358958619216 L 824.2553058640676 60.20915292685704 L 824.1375093429077 60.11540971202653 L 824.0217923905033 60.02113868837107 L 823.908166578453 59.926349282914444 L 823.7966432692436 59.83105097451821 L 823.687233615113 59.735253292933805 L 823.5799485569353 59.63896581784955 L 823.474798823127 59.54219817793271 L 823.371794928574 59.444960049866644 L 823.2709471735797 59.34726115738312 L 823.1722656428356 59.24911127028998 L 823.0757602044126 59.15052020349414 L 822.9814405087742 59.05149781602011 L 822.8893159878112 58.95205401002413 L 822.799395853899 58.85219872980392 L 822.7116890989761 58.75194196080431 L 822.6262044936448 58.651293728618626 L 822.5429505862945 58.550264097986236 L 822.4619357022465 58.448863171785995 L 822.3831679429217 58.34710109002604 L 822.3066551850304 58.244988028829724 L 822.2324050797846 58.14253419941809 L 822.1604250521331 58.03974984708869 L 822.0907223000183 57.93664525019112 L 822.0233037936579 57.833230719099134 L 821.9581762748459 57.72951659517967 L 821.8953462562799 57.62551324975868 L 821.8348200209098 57.521231083084054 L 821.7766036213083 57.41668052328555 L 821.7207028790671 57.311872025332015 L 821.6671233842136 57.20681606998592 L 821.6158704946528 57.10152316275524 L 821.566949335631 56.996003832842966 L 821.5203647992231 56.89026863209415 L 821.4761215438442 56.78432813394075 L 821.4342239937828 56.6781929323443 L 821.394676338759 56.57187364073653 L 821.3574825335054 56.465380890957974 L 821.3226462973715 56.35872533219489 L 821.2901711139518 56.25191762991426 L 821.2600602307378 56.144968464797316 L 821.2323166587926 56.037888531671435 L 821.2069431724502 55.930688538440705 L 821.1839423090382 55.823379205015115 L 821.1633163686238 55.71597126223858 L 821.1450674137836 55.60847545081588 L 821.1291972693982 55.50090252023857 L 821.1157075224687 55.39326322771006 L 821.1045995219584 55.28556833706991 L 821.0958743786584 55.17782861771744 L 821.0895329650755 55.0700548435348 L 821.0855759153459 54.96225779180959 L 821.0840036251711 54.85444824215717" stroke-miterlimit="10" stroke-width="2.7769845610000004" stroke-dasharray=""/></g><g><g/><text fill="black" stroke="none" font-family="sans-serif" font-size="11pt" font-style="normal" font-weight="normal" text-decoration="normal" x="822.5246406424153" y="83.14618479699999" text-anchor="start" dominant-baseline="alphabetic" xml:space="preserve">SQLite</text></g></g><g><path fill="white" stroke="black" paint-order="fill stroke markers" d=" M 73.50841485 96.21434743699999 L 89.84361814999998 96.21434743699999 L 89.84361814999998 664.6794222769998 L 73.50841485 664.6794222769998 L 73.50841485 96.21434743699999" stroke-miterlimit="10" stroke-width="1.3612669416666667" stroke-dasharray=""/><path fill="white" stroke="black" paint-order="fill stroke markers" d=" M 478.8585670216146 141.952916677 L 495.1937703216146 141.952916677 L 495.1937703216146 187.691485917 L 478.8585670216146 187.691485917 L 478.8585670216146 141.952916677" stroke-miterlimit="10" stroke-width="1.3612669416666667" stroke-dasharray=""/><path fill="white" stroke="black" paint-order="fill stroke markers" d=" M 620.4421352603515 233.430055157 L 636.7773385603516 233.430055157 L 636.7773385603516 324.907193637 L 620.4421352603515 324.907193637 L 620.4421352603515 233.430055157" stroke-miterlimit="10" stroke-width="1.3612669416666667" stroke-dasharray=""/><path fill="white" stroke="black" paint-order="fill stroke markers" d=" M 478.8585670216146 370.645762877 L 495.1937703216146 370.645762877 L 495.1937703216146 460.489381027 L 478.8585670216146 460.489381027 L 478.8585670216146 370.645762877" stroke-miterlimit="10" stroke-width="1.3612669416666667" stroke-dasharray=""/><path fill="white" stroke="black" paint-order="fill stroke markers" d=" M 620.4421352603515 506.227950267 L 636.7773385603516 506.227950267 L 636.7773385603516 597.7050887469999 L 620.4421352603515 597.7050887469999 L 620.4421352603515 506.227950267" stroke-miterlimit="10" stroke-width="1.3612669416666667" stroke-dasharray=""/><g><g><rect fill="white" stroke="none" x="170.27594941990887" y="120.717152387" width="228.15028633179688" height="21.23576429"/></g><text fill="black" stroke="none" font-family="sans-serif" font-size="11pt" font-style="normal" font-weight="normal" text-decoration="normal" x="172.72622991490886" y="135.418835357" text-anchor="start" dominant-baseline="alphabetic" xml:space="preserve">gRPC call for ServerReflectionInfo</text></g><g><path fill="none" stroke="black" paint-order="fill stroke markers" d=" M 89.84361814999998 141.952916677 L 465.40924963794794 141.952916677" stroke-miterlimit="10" stroke-width="1.3612669416666667" stroke-dasharray=""/><g transform="translate(478.8585670216146,141.952916677) translate(-478.8585670216146,-141.952916677)"><path fill="black" stroke="none" paint-order="stroke fill markers" d=" M 465.2458976049479 135.14658196866665 L 478.8585670216146 141.952916677 L 465.2458976049479 148.75925138533333 Z"/></g></g><g><g><rect fill="white" stroke="none" x="162.9387988461784" y="166.455721627" width="242.82458747925781" height="21.23576429"/></g><text fill="black" stroke="none" font-family="sans-serif" font-size="11pt" font-style="normal" font-weight="normal" text-decoration="normal" x="165.3890793411784" y="181.15740459699998" text-anchor="start" dominant-baseline="alphabetic" xml:space="preserve">Return list of implemented proto files</text></g><g><path fill="none" stroke="black" paint-order="fill stroke markers" d=" M 478.8585670216146 187.691485917 L 103.29293553366665 187.691485917" stroke-miterlimit="10" stroke-width="1.3612669416666667" stroke-dasharray="6.53408132"/><g transform="translate(89.84361814999998,187.691485917) translate(-89.84361814999998,-187.691485917)"><path fill="black" stroke="none" paint-order="stroke fill markers" d=" M 103.45628756666665 180.88515120866666 L 89.84361814999998 187.691485917 L 103.45628756666665 194.49782062533333 Z"/></g></g><g><g><rect fill="white" stroke="none" x="255.74203468673826" y="212.194290867" width="198.801684036875" height="21.23576429"/></g><text fill="black" stroke="none" font-family="sans-serif" font-size="11pt" font-style="normal" font-weight="normal" text-decoration="normal" x="258.19231518173825" y="226.89597383699999" text-anchor="start" dominant-baseline="alphabetic" xml:space="preserve">gRPC call for RegisterService</text></g><g><path fill="none" stroke="black" paint-order="fill stroke markers" d=" M 89.84361814999998 233.430055157 L 606.9928178766849 233.430055157" stroke-miterlimit="10" stroke-width="1.3612669416666667" stroke-dasharray=""/><g transform="translate(620.4421352603515,233.430055157) translate(-620.4421352603515,-233.430055157)"><path fill="black" stroke="none" paint-order="stroke fill markers" d=" M 606.8294658436848 226.62372044866666 L 620.4421352603515 233.430055157 L 606.8294658436848 240.23638986533334 Z"/></g></g><g><g><rect fill="white" stroke="none" x="656.1073291320182" y="257.93286010699995" width="169.49605049195313" height="21.23576429"/></g><text fill="black" stroke="none" font-family="sans-serif" font-size="11pt" font-style="normal" font-weight="normal" text-decoration="normal" x="658.5576096270182" y="272.63454307699993" text-anchor="start" dominant-baseline="alphabetic" xml:space="preserve">Add implemented service</text></g><g><path fill="none" stroke="black" paint-order="fill stroke markers" d=" M 636.7773385603516 279.168624397 L 831.4840528119713 279.168624397" stroke-miterlimit="10" stroke-width="1.3612669416666667" stroke-dasharray=""/><g transform="translate(844.933370195638,279.168624397) translate(-844.933370195638,-279.168624397)"><path fill="black" stroke="none" paint-order="stroke fill markers" d=" M 831.3207007789713 272.36228968866664 L 844.933370195638 279.168624397 L 831.3207007789713 285.9749591053333 Z"/></g></g><g><g><rect fill="white" stroke="none" x="295.6596753727734" y="303.67142934699996" width="118.96640266480469" height="21.23576429"/></g><text fill="black" stroke="none" font-family="sans-serif" font-size="11pt" font-style="normal" font-weight="normal" text-decoration="normal" x="298.1099558677734" y="318.37311231699994" text-anchor="start" dominant-baseline="alphabetic" xml:space="preserve">gRPC Status: OK</text></g><g><path fill="none" stroke="black" paint-order="fill stroke markers" d=" M 620.4421352603515 324.907193637 L 103.29293553366665 324.907193637" stroke-miterlimit="10" stroke-width="1.3612669416666667" stroke-dasharray="6.53408132"/><g transform="translate(89.84361814999998,324.907193637) translate(-89.84361814999998,-324.907193637)"><path fill="black" stroke="none" paint-order="stroke fill markers" d=" M 103.45628756666665 318.10085892866664 L 89.84361814999998 324.907193637 L 103.45628756666665 331.7135283453333 Z"/></g></g><g><g><rect fill="white" stroke="none" x="109.17360872166667" y="349.40999858699996" width="350.3549677282812" height="21.23576429"/></g><text fill="black" stroke="none" font-family="sans-serif" font-size="11pt" font-style="normal" font-weight="normal" text-decoration="normal" x="111.62388921666667" y="364.11168155699994" text-anchor="start" dominant-baseline="alphabetic" xml:space="preserve">gRPC call for Health Check for services implemented</text></g><g><path fill="none" stroke="black" paint-order="fill stroke markers" d=" M 89.84361814999998 370.645762877 L 465.40924963794794 370.645762877" stroke-miterlimit="10" stroke-width="1.3612669416666667" stroke-dasharray=""/><g transform="translate(478.8585670216146,370.645762877) translate(-478.8585670216146,-370.645762877)"><path fill="black" stroke="none" paint-order="stroke fill markers" d=" M 465.2458976049479 363.83942816866664 L 478.8585670216146 370.645762877 L 465.2458976049479 377.4520975853333 Z"/></g></g><g><g><rect fill="white" stroke="none" x="183.04969972508465" y="439.25361673699996" width="202.60278572144531" height="21.23576429"/></g><text fill="black" stroke="none" font-family="sans-serif" font-size="11pt" font-style="normal" font-weight="normal" text-decoration="normal" x="185.49998022008464" y="453.95529970699994" text-anchor="start" dominant-baseline="alphabetic" xml:space="preserve">gRPC Status: NOT_SERVING</text></g><g><path fill="none" stroke="black" paint-order="fill stroke markers" d=" M 478.8585670216146 460.489381027 L 103.29293553366665 460.489381027" stroke-miterlimit="10" stroke-width="1.3612669416666667" stroke-dasharray="6.53408132"/><g transform="translate(89.84361814999998,460.489381027) translate(-89.84361814999998,-460.489381027)"><path fill="black" stroke="none" paint-order="stroke fill markers" d=" M 103.45628756666665 453.68304631866664 L 89.84361814999998 460.489381027 L 103.45628756666665 467.2957157353333 Z"/></g></g><g><g><rect fill="white" stroke="none" x="249.22450233810545" y="484.99218597699996" width="211.83674873414063" height="21.23576429"/></g><text fill="black" stroke="none" font-family="sans-serif" font-size="11pt" font-style="normal" font-weight="normal" text-decoration="normal" x="251.67478283310544" y="499.69386894699994" text-anchor="start" dominant-baseline="alphabetic" xml:space="preserve">gRPC call for UnregisterService</text></g><g><path fill="none" stroke="black" paint-order="fill stroke markers" d=" M 89.84361814999998 506.227950267 L 606.9928178766849 506.227950267" stroke-miterlimit="10" stroke-width="1.3612669416666667" stroke-dasharray=""/><g transform="translate(620.4421352603515,506.227950267) translate(-620.4421352603515,-506.227950267)"><path fill="black" stroke="none" paint-order="stroke fill markers" d=" M 606.8294658436848 499.42161555866664 L 620.4421352603515 506.227950267 L 606.8294658436848 513.0342849753333 Z"/></g></g><g><g><rect fill="white" stroke="none" x="674.0386035460807" y="530.7307552169999" width="133.63350166382813" height="21.23576429"/></g><text fill="black" stroke="none" font-family="sans-serif" font-size="11pt" font-style="normal" font-weight="normal" text-decoration="normal" x="676.4888840410807" y="545.4324381869999" text-anchor="start" dominant-baseline="alphabetic" xml:space="preserve">Set IsAlive as False</text></g><g><path fill="none" stroke="black" paint-order="fill stroke markers" d=" M 636.7773385603516 551.9665195069999 L 831.4840528119713 551.9665195069999" stroke-miterlimit="10" stroke-width="1.3612669416666667" stroke-dasharray=""/><g transform="translate(844.933370195638,551.9665195069999) translate(-844.933370195638,-551.9665195069999)"><path fill="black" stroke="none" paint-order="stroke fill markers" d=" M 831.3207007789713 545.1601847986666 L 844.933370195638 551.9665195069999 L 831.3207007789713 558.7728542153333 Z"/></g></g><g><g><rect fill="white" stroke="none" x="295.6596753727734" y="576.4693244569999" width="118.96640266480469" height="21.23576429"/></g><text fill="black" stroke="none" font-family="sans-serif" font-size="11pt" font-style="normal" font-weight="normal" text-decoration="normal" x="298.1099558677734" y="591.1710074269998" text-anchor="start" dominant-baseline="alphabetic" xml:space="preserve">gRPC Status: OK</text></g><g><path fill="none" stroke="black" paint-order="fill stroke markers" d=" M 620.4421352603515 597.7050887469999 L 103.29293553366665 597.7050887469999" stroke-miterlimit="10" stroke-width="1.3612669416666667" stroke-dasharray="6.53408132"/><g transform="translate(89.84361814999998,597.7050887469999) translate(-89.84361814999998,-597.7050887469999)"><path fill="black" stroke="none" paint-order="stroke fill markers" d=" M 103.45628756666665 590.8987540386665 L 89.84361814999998 597.7050887469999 L 103.45628756666665 604.5114234553332 Z"/></g></g><g><g><rect fill="white" stroke="none" x="109.17360872166664" y="622.2078936969998" width="87.19830574097656" height="21.23576429"/></g><text fill="black" stroke="none" font-family="sans-serif" font-size="11pt" font-style="normal" font-weight="normal" text-decoration="normal" x="111.62388921666664" y="636.9095766669998" text-anchor="start" dominant-baseline="alphabetic" xml:space="preserve">Exit Status 1</text></g><g><path fill="none" stroke="black" paint-order="fill stroke markers" d=" M 89.84361814999998 643.4436579869998 L 155.18443134999998 643.4436579869998 L 155.18443134999998 664.6794222769998 L 103.29293553366665 664.6794222769998" stroke-miterlimit="10" stroke-width="1.3612669416666667" stroke-dasharray=""/><g transform="translate(89.84361814999998,664.6794222769998) translate(-89.84361814999998,-664.6794222769998)"><path fill="black" stroke="none" paint-order="stroke fill markers" d=" M 103.45628756666665 657.8730875686665 L 89.84361814999998 664.6794222769998 L 103.45628756666665 671.4857569853332 Z"/></g></g><g><g/><path fill="none" stroke="black" paint-order="fill stroke markers" d=" M 16.33520329999999 395.14856782699997 L 902.106581745638 395.14856782699997 L 902.106581745638 689.1822272269999 L 16.33520329999999 689.1822272269999 L 16.33520329999999 395.14856782699997 Z" stroke-miterlimit="10" stroke-width="2.3336004714285714" stroke-dasharray=""/><path fill="white" stroke="black" paint-order="fill stroke markers" d=" M 16.33520329999999 395.14856782699997 L 16.33520329999999 414.750811787 L 80.30658951425781 414.750811787 L 90.10771149425781 404.94968980699997 L 90.10771149425781 395.14856782699997 L 16.33520329999999 395.14856782699997" stroke-miterlimit="10" stroke-width="2.3336004714285714" stroke-dasharray=""/><text fill="black" stroke="none" font-family="sans-serif" font-size="8.8pt" font-style="normal" font-weight="bold" text-decoration="normal" x="32.67040659999999" y="408.216730467" text-anchor="start" dominant-baseline="alphabetic" xml:space="preserve">break</text><text fill="black" stroke="none" font-family="sans-serif" font-size="8.8pt" font-style="normal" font-weight="bold" text-decoration="normal" x="106.44291479425782" y="408.216730467" text-anchor="start" dominant-baseline="alphabetic" xml:space="preserve">[exception]</text></g></g><g/><g/><g/><g/></g></svg>