<svg version="1.1" xmlns="http://www.w3.org/2000/svg" xmlns:xlink="http://www.w3.org/1999/xlink" width="1027" height="746"><desc>participant%20Discovery%20Agent%0Aparticipant%20Service%0Aparticipant%20Discovery%20Master%0Adatabase%3A1%20SQLite%0A%0Aactivate%20Discovery%20Agent%0ADiscovery%20Agent-%3EService%3A%20gRPC%20call%20for%20ServerReflectionInfo%0Aactivate%20Service%0AService--%3EDiscovery%20Agent%3A%20Return%20list%20of%20implemented%20proto%20files%0Adeactivate%20Service%0ADiscovery%20Agent-%3EDiscovery%20Master%3A%20gRPC%20call%20for%20RegisterService%0Aactivate%20Discovery%20Master%0ADiscovery%20Master-%3ESQLite%3A%20Insert%20implemented%20services%0ADiscovery%20Master--%3EDiscovery%20Agent%3A%20gRPC%20Status%3A%20OK%0Adeactivate%20Discovery%20Master%0ADiscovery%20Agent-%3EService%3A%20gRPC%20Health%20Check%20call%20for%20implemented%20services%0Aactivate%20Service%0Abreak%20exception%0AService--%3EDiscovery%20Agent%3A%20gRPC%20Health%20Check%20Status%3A%20NOT_SERVING%0Adeactivate%20Service%0ADiscovery%20Agent-%3EDiscovery%20Master%3A%20gRPC%20call%20for%20UnregisterService%0Aactivate%20Discovery%20Master%0ADiscovery%20Master-%3ESQLite%3A%20Set%20IsAlive%20as%20False%20of%20implemented%20services%20%0ADiscovery%20Master--%3EDiscovery%20Agent%3A%20gRPC%20Status%3A%20OK%0Adeactivate%20Discovery%20Master%0ADiscovery%20Agent-%3EDiscovery%20Agent%3A%20Exit%20Status%201%0Adeactivate%20Discovery%20Agent%0Aend%0A%0A</desc><defs/><g><g/><g/><g/><g/><g/><g/><g/><g/><g/><g/><g/><g><rect fill="white" stroke="none" x="0" y="0" width="1027" height="746"/></g><g/><g><path fill="none" stroke="black" paint-order="fill stroke markers" d=" M 81.67601649999999 88.04674578699999 L 81.67601649999999 746.3554387769999" stroke-miterlimit="10" stroke-width="1.3612669416666667" stroke-dasharray="12.565541,5.445067766666667"/><path fill="none" stroke="black" paint-order="fill stroke markers" d=" M 465.8450468454427 88.04674578699999 L 465.8450468454427 746.3554387769999" stroke-miterlimit="10" stroke-width="1.3612669416666667" stroke-dasharray="12.565541,5.445067766666667"/><path fill="none" stroke="black" paint-order="fill stroke markers" d=" M 607.4286150841797 88.04674578699999 L 607.4286150841797 746.3554387769999" stroke-miterlimit="10" stroke-width="1.3612669416666667" stroke-dasharray="12.565541,5.445067766666667"/><path fill="none" stroke="black" paint-order="fill stroke markers" d=" M 954.1029258597005 88.04674578699999 L 954.1029258597005 746.3554387769999" stroke-miterlimit="10" stroke-width="1.3612669416666667" stroke-dasharray="12.565541,5.445067766666667"/></g><g><path fill="none" stroke="none"/><g><path fill="white" stroke="black" paint-order="fill stroke markers" d=" M 10.584416256414045 43.941696877 L 152.76761674358593 43.941696877 L 152.76761674358593 88.04674578699999 L 10.584416256414045 88.04674578699999 L 10.584416256414045 43.941696877 Z" stroke-miterlimit="10" stroke-width="2.613632528" stroke-dasharray=""/></g><g><g/><text fill="black" stroke="none" font-family="sans-serif" font-size="11pt" font-style="normal" font-weight="normal" text-decoration="normal" x="28.30811183691405" y="71.711542487" text-anchor="start" dominant-baseline="alphabetic" xml:space="preserve">Discovery Agent</text></g><path fill="none" stroke="none"/><g><path fill="white" stroke="black" paint-order="fill stroke markers" d=" M 423.6797085037122 43.941696877 L 508.01038518717314 43.941696877 L 508.01038518717314 88.04674578699999 L 423.6797085037122 88.04674578699999 L 423.6797085037122 43.941696877 Z" stroke-miterlimit="10" stroke-width="2.613632528" stroke-dasharray=""/></g><g><g/><text fill="black" stroke="none" font-family="sans-serif" font-size="11pt" font-style="normal" font-weight="normal" text-decoration="normal" x="441.40340408421224" y="71.711542487" text-anchor="start" dominant-baseline="alphabetic" xml:space="preserve">Service</text></g><path fill="none" stroke="none"/><g><path fill="white" stroke="black" paint-order="fill stroke markers" d=" M 533.0907761320976 43.941696877 L 681.7664540362617 43.941696877 L 681.7664540362617 88.04674578699999 L 533.0907761320976 88.04674578699999 L 533.0907761320976 43.941696877 Z" stroke-miterlimit="10" stroke-width="2.613632528" stroke-dasharray=""/></g><g><g/><text fill="black" stroke="none" font-family="sans-serif" font-size="11pt" font-style="normal" font-weight="normal" text-decoration="normal" x="550.8144717125977" y="71.711542487" text-anchor="start" dominant-baseline="alphabetic" xml:space="preserve">Discovery Master</text></g><g><path fill="white" stroke="black" paint-order="fill stroke markers" d=" M 930.2535290417005 56.029747319 L 930.2535290417005 21.725820389 L 977.9523226777004 21.725820389 L 977.9523226777004 56.029747319" stroke-miterlimit="10" stroke-width="2.7769845610000004" stroke-dasharray=""/><path fill="white" stroke="black" paint-order="fill stroke markers" d=" M 977.9523226777004 20.5333505481 L 977.9511302177967 20.64116109301662 L 977.9475529573307 20.748960856968594 L 977.9415912540254 20.85673906006935 L 977.933245704046 20.964484924588405 L 977.9225171419408 21.072187676029085 L 977.909406640557 21.179836544206 L 977.8939155109338 21.287420764322043 L 977.8760453021712 21.394929578044856 L 977.8557978012751 21.502352234582652 L 977.8331750329789 21.6096779917593 L 977.8081792595406 21.716896117088513 L 977.7808129805165 21.82399588884712 L 977.751078932512 21.93096659714718 L 977.7189800889068 22.037797545007013 L 977.6845196595588 22.144478049420858 L 977.647701090482 22.250997442427174 L 977.6085280635026 22.357345072175423 L 977.5670044958908 22.463510303991256 L 977.5231345399689 22.56948252143996 L 977.4769225826955 22.6752511273881 L 977.4283732452282 22.780805545063224 L 977.3774913824601 22.886135219111527 L 977.3242820825352 22.991229616653374 L 977.268750666339 23.09607822833659 L 977.210902686967 23.200670569387384 L 977.1507439291688 23.304996180658804 L 977.0882804087702 23.40904462967667 L 977.023518372071 23.51280551168278 L 976.9564642952209 23.616268450675403 L 976.887124883572 23.719423100446857 L 976.8155070710073 23.82225914561813 L 976.7416180192487 23.9247663026704 L 976.6654651171397 24.026934320973382 L 976.5870559799068 24.128752983810383 L 976.5063984483987 24.230212109399975 L 976.4235005883013 24.331301551914144 L 976.3383706893314 24.432011202492884 L 976.251017264408 24.532330990255055 L 976.1614490488008 24.63225088330548 L 976.0696749992568 24.731760889738126 L 975.9757042931044 24.830851058635275 L 975.8795463273358 24.929511481062605 L 975.7812107176677 25.027732291060094 L 975.6807072975789 25.125503666628596 L 975.5780461173277 25.222815830712022 L 975.4732374429467 25.319659052175062 L 975.3662917552158 25.416023646776274 L 975.2572197486148 25.511899978136498 L 975.1460323302535 25.607278458702496 L 975.032740618781 25.70214955070569 L 974.9173559432741 25.796503767115947 L 974.799889842104 25.890331672590246 L 974.6803540617831 25.983623884416232 L 974.5587605557898 26.076371073450467 L 974.4351214833735 26.168563965051334 L 974.309449208338 26.260193340006502 L 974.1817562978066 26.351250035454832 L 974.0520555209636 26.44172494580266 L 973.9203598477786 26.531609023634346 L 973.7866824477094 26.62089328061701 L 973.6510366883845 26.709568788399363 L 973.5134361342666 26.79762667950451 L 973.3738945452967 26.885058148216736 L 973.2324258755174 26.97185445146202 L 973.0890442716776 27.05800690968237 L 972.9437640718185 27.143506907703753 L 972.7965998038386 27.228345895597624 L 972.6475661840425 27.31251538953589 L 972.4966781156676 27.3960069726393 L 972.3439506873952 27.47881229581911 L 972.189399171841 27.56092307861202 L 972.0330390240275 27.64233111000817 L 971.8748858798392 27.723028249272257 L 971.7149555544589 27.803006426757605 L 971.5532640407857 27.882257644713114 L 971.3898275078365 27.96077397808303 L 971.2246622991279 28.038547575299447 L 971.0577849310436 28.115570659067455 L 970.8892120911811 28.19183552714286 L 970.718960636684 28.267334553102412 L 970.5470475925558 28.34206018710643 L 970.3734901499578 28.416004956653783 L 970.1983056644895 28.489161467329136 L 970.0215116544534 28.561522403542384 L 969.8431257991034 28.633080529260212 L 969.6631659368761 28.70382868872968 L 969.4816500636081 28.773759807193787 L 969.2985963307351 28.842866891598973 L 969.1140230434781 28.911143031294383 L 968.9279486590119 28.978581398722945 L 968.74039178462 29.045175250104112 L 968.5513711758333 29.110917926108243 L 968.3609057345554 29.175802852522523 L 968.1690145071716 29.239823540908375 L 967.9757166826448 29.30297358925032 L 967.7810315905963 29.365246682596148 L 967.5849786993731 29.426636593688414 L 967.3875776141009 29.487137183587166 L 967.1888480747239 29.546742402283833 L 966.9888099540301 29.605446289306215 L 966.7874832556652 29.663242974314535 L 966.5848881121311 29.720126677688448 L 966.3810447827733 29.776091711105025 L 966.175973651755 29.831132478107563 L 965.9696952260183 29.885243474665224 L 965.762230133234 29.938419289723445 L 965.5535991197382 29.990654605745036 L 965.3438230484588 30.041944199241925 L 965.1329228968278 30.092282941297498 L 964.9209197546847 30.1416657980795 L 964.7078348221671 30.190087831343412 L 964.4936894075908 30.23754419892625 L 964.2785049253184 30.28403015523081 L 964.0623028936192 30.329541051700197 L 963.845104932516 30.374072337282684 L 963.6269327616241 30.417619558886827 L 963.4078081979785 30.460178361826756 L 963.1877531538531 30.501744490257643 L 962.9667896345691 30.54231378760128 L 962.7449397362941 30.581882196961743 L 962.522225643833 30.620445761531066 L 962.2986696284096 30.658000624984936 L 962.0742940454392 30.694543031868292 L 961.8491213322928 30.730069327970906 L 961.6231740060545 30.764575960692767 L 961.3964746612683 30.798059479399367 L 961.1690459676798 30.830516535766726 L 960.940910667969 30.86194388411627 L 960.7120915754757 30.892338381739336 L 960.4826115719184 30.921696989211505 L 960.2524936051063 30.950016770696486 L 960.0217606866443 30.977294894239733 L 959.7904358896319 31.003528632051626 L 959.558542346356 31.028715360780247 L 959.326103245978 31.052852561773705 L 959.0931418322139 31.075937821332012 L 958.8596814010109 31.097968830948464 L 958.6257452982179 31.118943387540448 L 958.3913569172499 31.138859393669783 L 958.15653969675 31.15771485775246 L 957.9213171182444 31.175507894257777 L 957.6857127037947 31.19223672389691 L 957.4497500136464 31.207899673800846 L 957.2134526438717 31.222495177687634 L 956.9768442240107 31.236021776019058 L 956.7399484147081 31.24847811614655 L 956.5027889053476 31.259862952446483 L 956.2653894116825 31.27017514644471 L 956.027773673464 31.279413666930427 L 955.7899654520684 31.287577590059286 L 955.5519885281193 31.29466609944577 L 955.3138666991109 31.300678486244855 L 955.0756237770278 31.30561414922287 L 954.8372835859634 31.309472594817628 L 954.5988699597384 31.31225343718779 L 954.3604067395166 31.313956398251428 L 954.1219177714215 31.31458130771386 L 953.883426904151 31.314128103084656 L 953.6449579865931 31.312596829683912 L 953.4065348654409 31.30998764063768 L 953.1681813828079 31.306300796862697 L 952.9299213738435 31.301536667040267 L 952.6917786643503 31.2956957275794 L 952.4537770684007 31.288778562569174 L 952.2159403859558 31.280785863720332 L 951.9782924004859 31.27171843029609 L 951.7408568765914 31.261577169032243 L 951.5036575576266 31.25036309404646 L 951.2667181633262 31.238077326736896 L 951.0300623874319 31.224721095670045 L 950.7937138953241 31.21029573645788 L 950.557696321655 31.194802691624307 L 950.3220332679855 31.178243510460895 L 950.0867483004243 31.16061984887196 L 949.8518649472724 31.14193346920898 L 949.617406696669 31.12218624009434 L 949.3833969942442 31.101380136234503 L 949.1498592407728 31.079517238222515 L 948.9168167898359 31.056599732329957 L 948.6842929454842 31.03262991028832 L 948.4523109599083 31.007610169059838 L 948.2208940311137 30.98154301059778 L 947.9900653006002 30.954431041596266 L 947.7598478510487 30.926276973229612 L 947.5302647040121 30.897083620881187 L 947.3013388176138 30.866853903861898 L 947.0730930842518 30.835590845118258 L 946.8455503283092 30.803297570930084 L 946.6187333038719 30.769977310597895 L 946.3926646924534 30.735633396119944 L 946.1673671007264 30.70026926185907 L 945.9428630582623 30.663888444199216 L 945.7191750152784 30.62649458119185 L 945.4963253403926 30.588091412192092 L 945.2743363183864 30.54868277748485 L 945.0532301479774 30.50827261790075 L 944.833028939598 30.46686497442208 L 944.6137547131858 30.42446398777868 L 944.3954293959806 30.381073898033875 L 944.1780748203322 30.33669904416049 L 943.9617127215172 30.291343863606926 L 943.7463647355648 30.245012891853445 L 943.5320523970946 30.197710761958614 L 943.3187971371615 30.149442204096005 L 943.106620281114 30.10021204508118 L 942.8955430464607 30.050025207889014 L 942.6855865407493 29.998886711161404 L 942.4767717594555 29.94680166870541 L 942.2691195838831 29.893775288981875 L 942.062650779077 29.839812874584574 L 941.8573859917453 29.784919821709988 L 941.6533457481959 29.729101619617655 L 941.4505504522829 29.67236385008127 L 941.2490203833671 29.61471218683051 L 941.0487756942874 29.55615239498365 L 940.8498364093458 29.496690330471075 L 940.652222422305 29.43633193944969 L 940.4559534943992 29.375083257708297 L 940.2610492523573 29.312950410064026 L 940.0675291864414 29.249939609749873 L 939.8754126484966 29.186057157793353 L 939.6847188500169 29.121309442386426 L 939.4954668602229 29.055702938246682 L 939.307675604156 28.98924420596986 L 939.1213638607853 28.921939891373807 L 938.9365502611299 28.85379672483389 L 938.7532532863959 28.784821520609988 L 938.5714912661276 28.71502117616503 L 938.3912823763761 28.644402671475305 L 938.2126446378799 28.572973068332434 L 938.0355959142639 28.5007395096372 L 937.8601539102531 28.42770921868528 L 937.6863361699017 28.353889498444914 L 937.5141600748387 28.279287730826603 L 937.3436428425304 28.20391137594495 L 937.1748015245578 28.127767971372624 L 937.0076530049118 28.05086513138663 L 936.8422139983055 27.973210546206882 L 936.6785010485013 27.894811981227186 L 936.516530526658 27.81567727623871 L 936.3563186296927 27.735814344646005 L 936.1978813786616 27.655231172675677 L 936.0412346171578 27.573935818577773 L 935.8863940097269 27.491936411819957 L 935.7333750403006 27.409241152274568 L 935.5821930106483 27.325858309398654 L 935.432863038847 27.241796221407014 L 935.2854000577695 27.157063294438398 L 935.139818813591 27.07166800171489 L 934.9961338643145 26.985618882694595 L 934.8543595783153 26.89892454221772 L 934.7145101329039 26.811593649646056 L 934.5765995129082 26.723634937996092 L 934.4406415092751 26.63505720306569 L 934.306649717692 26.54586930255453 L 934.1746375372263 26.45608015517834 L 934.044618168986 26.365698739777034 L 933.9166046147994 26.274734094416832 L 933.7906096759156 26.183195315486472 L 933.6666459517232 26.09109155678756 L 933.5447258384916 25.998432028619217 L 933.4248615281301 25.90522599685704 L 933.3070650069702 25.811482782026534 L 933.1913480545658 25.717211758371064 L 933.0777222425155 25.62242235291444 L 932.9661989333061 25.527124044518214 L 932.8567892791755 25.431326362933806 L 932.7495042209978 25.33503888784955 L 932.6443544871895 25.238271247932712 L 932.5413505926365 25.141033119866645 L 932.4405028376422 25.043334227383127 L 932.341821306898 24.945184340289984 L 932.2453158684751 24.84659327349414 L 932.1509961728367 24.74757088602011 L 932.0588716518737 24.648127080024132 L 931.9689515179615 24.548271799803928 L 931.8812447630386 24.448015030804306 L 931.7957601577073 24.34736679861863 L 931.712506250357 24.246337167986233 L 931.631491366309 24.144936241786 L 931.5527236069842 24.043174160026034 L 931.4762108490929 23.941061098829724 L 931.4019607438471 23.83860726941809 L 931.3299807161956 23.735822917088697 L 931.2602779640808 23.63271832019112 L 931.1928594577204 23.52930378909913 L 931.1277319389084 23.425589665179665 L 931.0649019203424 23.32158631975868 L 931.0043756849723 23.21730415308405 L 930.9461592853708 23.112753593285547 L 930.8902585431296 23.00794509533202 L 930.8366790482761 22.90288913998592 L 930.7854261587153 22.797596232755243 L 930.7365049996935 22.692076902842967 L 930.6899204632856 22.58634170209415 L 930.6456772079067 22.48040120394075 L 930.6037796578453 22.374266002344307 L 930.5642320028215 22.267946710736528 L 930.5270381975679 22.161453960957978 L 930.492201961434 22.05479840219489 L 930.4597267780143 21.94799069991426 L 930.4296158948003 21.841041534797313 L 930.4018723228551 21.733961601671435 L 930.3764988365127 21.62676160844071 L 930.3534979731007 21.51945227501512 L 930.3328720326863 21.412044332238587 L 930.3146230778461 21.30454852081588 L 930.2987529334607 21.19697559023857 L 930.2852631865312 21.08933629771006 L 930.274155186021 20.98164140706991 L 930.2654300427209 20.87390168771744 L 930.259088629138 20.7661279135348 L 930.2551315794084 20.658330861809592 L 930.2535592892336 20.55052131215717 L 930.2543719158416 20.442710045442645 L 930.2575693779702 20.334907842702854 L 930.2631513558758 20.227125484068235 L 930.2711172913655 20.119373747684833 L 930.2814663878522 20.011663408636494 L 930.294197610435 19.904005237867363 L 930.3093096860022 19.7964100011048 L 930.3268011033588 19.688888457782824 L 930.3466701133775 19.581451359966163 L 930.3689147291742 19.47410945127507 L 930.3935327263057 19.366873465810958 L 930.4205216429926 19.259754127083017 L 930.449878780366 19.15276214693585 L 930.4816012027366 19.04590822447831 L 930.5156857378885 18.939203045013606 L 930.5521289773965 18.832657278970757 L 930.5909272769672 18.72628158083758 L 930.6320767568029 18.620086588095244 L 930.67557330199 18.51408292015453 L 930.72141256291 18.408281177293887 L 930.7695899556752 18.302691939599445 L 930.8201006625865 18.197325765906974 L 930.872939632615 18.092193192746045 L 930.9281015819082 17.987304733286358 L 930.9855809943168 17.882670876286454 L 931.0453721219476 17.77830208504484 L 931.1074689857375 17.674208796353664 L 931.171865376052 17.570401419455052 L 931.2385548533058 17.46689033500019 L 931.3075307486066 17.36368589401126 L 931.3787861644224 17.260798416846367 L 931.4523139752711 17.158238192167477 L 931.5281068284327 17.056015475911597 L 931.6061571446851 16.954140490265164 L 931.6864571190619 16.85262342264185 L 931.7689987216322 16.751474424663822 L 931.853773698305 16.650703611146586 L 931.9407735716529 16.550321059087512 L 932.0299896417613 16.450336806658164 L 932.1214129870974 16.35076085220046 L 932.2150344654029 16.25160315322686 L 932.3108447146079 16.15287362542464 L 932.4088341537675 16.054582141664305 L 932.5089929840194 15.956738531012315 L 932.6113111895639 15.859352577748204 L 932.7157785386657 15.762434020386143 L 932.8223845846773 15.665992550701102 L 932.9311186670825 15.570037812759686 L 933.0419699125638 15.47457940195572 L 933.1549272360892 15.379626864050742 L 933.2699793420203 15.285189694219413 L 933.3871147252424 15.191277336100018 L 933.5063216723148 15.097899180850114 L 933.6275882626422 15.005064566207405 L 933.7509023696666 14.912782775555993 L 933.8762516620801 14.821063036998048 L 934.0036236050578 14.729914522430988 L 934.1330054615116 14.639346346630315 L 934.2643842933637 14.549367566338134 L 934.3977469628403 14.459987179357494 L 934.5330801337857 14.371214123652608 L 934.6703702729956 14.283057276455072 L 934.8096036515703 14.195525453376138 L 934.9507663462882 14.108627407525177 L 935.0938442409973 14.022371828634352 L 935.2388230280275 13.936767342189675 L 935.3856882096208 13.851822508568457 L 935.5344250993815 13.76754582218327 L 935.6850188237444 13.683945710632521 L 935.8374543234628 13.601030533857704 L 935.9917163551136 13.518808583307395 L 936.1477894926222 13.437288081108132 L 936.305658128805 13.356477179242205 L 936.46530647693 13.276383958732454 L 936.6267185722951 13.19701642883419 L 936.7898782738256 13.11838252623426 L 936.9547692656871 13.040490114257395 L 937.121375058918 12.963346982079887 L 937.2896789930778 12.886960843950664 L 937.4596642379131 12.811339338419888 L 937.6313137950414 12.73649002757509 L 937.8046104996498 12.662420396284984 L 937.9795370222123 12.589137851450971 L 938.1560758702225 12.516649721266472 L 938.3342093899425 12.444963254484088 L 938.5139197681691 12.37408561969077 L 938.695189034014 12.304023904590924 L 938.8779990607017 12.234785115297683 L 939.0623315673819 12.166376175632273 L 939.2481681209576 12.098803926431655 L 939.4354901379282 12.032075124864438 L 939.6242788862481 11.966196443755171 L 939.8145154872 11.901174470917068 L 940.0061809172821 11.837015708493228 L 940.1992560101112 11.773726572306426 L 940.3937214583389 11.71131339121754 L 940.5895578155825 11.64978240649267 L 940.7867454983692 11.589139771179015 L 940.9852647880955 11.529391549489564 L 941.1850958329975 11.470543716196701 L 941.3862186501373 11.412602156034716 L 941.5886131274009 11.355572663111337 L 941.7922590255092 11.299460940328336 L 941.997135980042 11.244272598811229 L 942.2032235034746 11.190013157348178 L 942.4105009872266 11.136688041838113 L 942.618947703722 11.084302584748148 L 942.8285428084632 11.03286202458034 L 943.0392653421142 10.982371505347833 L 943.2510942325972 10.932836076060482 L 943.4640082971998 10.88426069021993 L 943.677986244693 10.836650205324288 L 943.8930066774602 10.790009382382364 L 944.1090480936374 10.74434288543759 L 944.3260888892629 10.6996552811016 L 944.5441073604383 10.655951038097594 L 944.7630817054978 10.613234526813446 L 944.9829900271895 10.571510018864695 L 945.2038103348648 10.530781686667359 L 945.4255205466765 10.49105360302072 L 945.6480984917883 10.452329740700035 L 945.8715219125913 10.41461397205927 L 946.0957684669295 10.377910068643855 L 946.3208157303344 10.342221700813546 L 946.5466411982671 10.307552437375389 L 946.7732222883692 10.273905745226832 L 947.0005363427204 10.241284989009054 L 947.2285606301044 10.209693430770495 L 947.4572723482829 10.179134229640646 L 947.6866486262745 10.14961044151416 L 947.9166665266426 10.121125018745243 L 948.1473030477888 10.093680809852438 L 948.3785351262532 10.067280559233762 L 948.6103396390205 10.041926906892275 L 948.8426934058328 10.017622388172084 L 949.075573191507 9.99436943350481 L 949.3089557082586 9.972170368166541 L 949.5428176180304 9.95102741204531 L 949.7771355348262 9.930942679419111 L 950.0118860270497 9.91191817874447 L 950.2470456198473 9.893955812455602 L 950.4825907974557 9.877057376774163 L 950.7184980055533 9.861224561529642 L 950.9547436536161 9.846458949990371 L 951.1913041172759 9.832762018705198 L 951.4281557406837 9.820135137355836 L 951.6652748388743 9.808579568619898 L 951.9026377001358 9.798096468044628 L 952.1402205883795 9.78868688393135 L 952.3779997455148 9.780351757230632 L 952.6159513938242 9.773091921448197 L 952.8540517383409 9.766908102561576 L 953.092276969229 9.761800918947504 L 953.3306032641641 9.757770881320084 L 953.5690067907151 9.754818392679725 L 953.8074637087279 9.752943748272825 L 954.0459501727098 9.752147135562266 L 954.2844423342128 9.752428634208655 L 954.5229163442197 9.753788216062361 L 954.7613483555281 9.756225745166333 L 954.9997145251356 9.75974097776969 L 955.2379910166238 9.764333562352103 L 955.4761540025423 9.770003039658938 L 955.7141796667909 9.776748842747192 L 955.9520442070013 9.784570297042176 L 956.189723836918 9.793466620404978 L 956.4271947887761 9.803436923210677 L 956.664433315678 9.8144802084373 L 956.9014156939689 9.826595371765528 L 957.1381182256085 9.83978120168912 L 957.3745172405409 9.854036379636078 L 957.6105890990615 9.869359480100481 L 957.8463101941811 9.885748970785057 L 958.0816569539868 9.903203212754391 L 958.3166058439987 9.921720460598834 L 958.5511333695234 9.941298862609031 L 958.7852160780042 9.961936460961097 L 959.0188305613649 9.983631191912394 L 959.251953458352 10.006380886007905 L 959.4845614568701 10.030183268297183 L 959.7166312963132 10.055035958561827 L 959.9481397698906 10.080936471553528 L 960.1790637269481 10.107882217242567 L 960.4093800752823 10.13587050107683 L 960.6390657834503 10.164898524251257 L 960.8680978830727 10.194963383987721 L 961.0964534711303 10.226062073825304 L 961.3241097122548 10.258191483920934 L 961.5510438410115 10.291348401360379 L 961.7772331641769 10.325529510479525 L 962.0026550630072 10.360731393195941 L 962.2272869955001 10.396950529350695 L 962.4511064986498 10.434183297060352 L 962.6740911906924 10.472425973079169 L 962.8962187733443 10.51167473317141 L 963.1174670340329 10.551925652493777 L 963.337813848116 10.593174705987877 L 963.5572371810958 10.635417768782737 L 963.7757150908222 10.678650616607278 L 963.9932257296862 10.722868926212747 L 964.209747346805 10.76806827580503 L 964.4252582901973 10.814244145486835 L 964.6397370089486 10.861391917709673 L 964.8531620553656 10.909506877735609 L 965.0655120871215 10.95858421410874 L 965.2767658693903 11.008619019136324 L 965.4869022769694 11.059606289379555 L 965.6959002963935 11.111540926153898 L 965.9037390280347 11.164417736038953 L 966.110397688193 11.218231431397797 L 966.3158556111747 11.272976630905736 L 966.5200922513586 11.328647860088443 L 966.723087185251 11.385239551869391 L 966.9248201135275 11.442746047126562 L 967.1252708630636 11.501161595258353 L 967.3244193889512 11.560480354758626 L 967.5222457765038 11.620696393800868 L 967.7187302432475 11.681803690831353 L 967.9138531408993 11.7437961351713 L 968.107594957332 11.806667527627935 L 968.2999363185254 11.870411581114405 L 968.4908579905039 11.935021921278484 L 968.680340881259 12.000492087139994 L 968.8683660426599 12.066815531736909 L 969.054914672347 12.133985622780036 L 969.2399681156127 12.201995643316248 L 969.423507867267 12.270838792400168 L 969.6055155734877 12.340508185774253 L 969.7859730336558 12.410996856557224 L 969.9648622021756 12.482297755940746 L 970.1421651902793 12.554403753894292 L 970.3178642678162 12.627307639878161 L 970.4919418650245 12.701002123564503 L 970.6643805742898 12.775479835566365 L 970.8351631518848 12.85073332817461 L 971.004272519694 12.926755076102687 L 971.1716917669216 13.003537477239155 L 971.3374041517825 13.081072853407886 L 971.5013931031762 13.159353451135875 L 971.6636422223442 13.238371442428583 L 971.8241352845098 13.318118925552731 L 971.9828562405006 13.398587925826458 L 972.1397892183531 13.4797703964168 L 972.2949185249005 13.561658219144345 L 972.4482286473414 13.64424320529506 L 972.599704254791 13.727517096439154 L 972.7493301998152 13.811471565256904 L 972.897091519944 13.89609821637139 L 973.0429734391685 13.981388587188025 L 973.1869613694183 14.0673341487408 L 973.3290409120206 14.153926306545182 L 973.4691978591393 14.241156401457552 L 973.6074181951965 14.329015710541107 L 973.7436880982739 14.417495447938157 L 973.8779939414947 14.506586765748693 L 974.0103222943865 14.59628075491518 L 974.1406599242241 14.68656844611344 L 974.2689937973535 14.777440810649601 L 974.3953110804941 14.868888761362928 L 974.5195991420228 14.96090315353456 L 974.6418455532372 15.05347478580196 L 974.7620380895979 15.146594401079039 L 974.8801647319516 15.240252687481874 L 974.9962136677323 15.33444027925987 L 975.1101732921431 15.429147757732338 L 975.2220322093168 15.524365652230356 L 975.3317792334547 15.62008444104382 L 975.4394033899458 15.716294552373615 L 975.5448939164643 15.812986365288783 L 975.6482402640453 15.910150210688608 L 975.7494320981402 16.00777637226952 L 975.8484592996501 16.105855087496717 L 975.9453119659371 16.204376548580406 L 976.0399804118155 16.30333090345658 L 976.1324551705194 16.402708256772215 L 976.2227269946502 16.502498670874793 L 976.3107868571005 16.602692166806058 L 976.3966259519576 16.703278725299917 L 976.4802356953836 16.80424828778434 L 976.5616077264735 16.90559075738722 L 976.6407339080924 17.00729599994605 L 976.7176063276879 17.10935384502132 L 976.792217298082 17.211754086913583 L 976.8645593582401 17.314486485683975 L 976.9346252740163 17.41754076817823 L 977.0024080388773 17.52090662905398 L 977.0679008746033 17.62457373181127 L 977.1310972319652 17.728531709826218 L 977.1919907913799 17.83277016738765 L 977.2505754635423 17.93727868073668 L 977.3068453900339 18.04204679910906 L 977.3607949439091 18.147064045780258 L 977.4124187302574 18.252319919113123 L 977.461711586743 18.357803893608033 L 977.5086685841217 18.463505420955443 L 977.5532850267325 18.569413931090704 L 977.5955564529686 18.675518833251058 L 977.6354786357224 18.781809517034706 L 977.6730475828091 18.88827535346185 L 977.708259537365 18.994905696037566 L 977.7411109782245 19.101689881816455 L 977.7715986202703 19.208617232468924 L 977.799719414764 19.31567705534902 L 977.8254705496494 19.422858644563664 L 977.8488494498346 19.530151282043253 L 977.8698537774488 19.637544238613454 L 977.8884814320771 19.745026775068098 L 977.9047305509694 19.852588143243114 L 977.9185995092273 19.960217587091314 L 977.9300869199666 20.067904343758006 L 977.9391916344557 20.17563764465726 L 977.9459127422309 20.283406716548765 L 977.9502495711869 20.39120078261514 L 977.9522016876444 20.49900906353961 M 977.9523226777004 54.8372774781 L 977.9511302177967 54.94508802301662 L 977.9475529573307 55.05288778696859 L 977.9415912540254 55.160665990069354 L 977.933245704046 55.2684118545884 L 977.9225171419408 55.376114606029084 L 977.909406640557 55.483763474206 L 977.8939155109338 55.591347694322046 L 977.8760453021712 55.698856508044855 L 977.8557978012751 55.80627916458265 L 977.8331750329789 55.913604921759294 L 977.8081792595406 56.02082304708851 L 977.7808129805165 56.12792281884712 L 977.751078932512 56.23489352714718 L 977.7189800889068 56.34172447500701 L 977.6845196595588 56.44840497942086 L 977.647701090482 56.55492437242717 L 977.6085280635026 56.66127200217542 L 977.5670044958908 56.76743723399125 L 977.5231345399689 56.87340945143996 L 977.4769225826955 56.979178057388104 L 977.4283732452282 57.08473247506323 L 977.3774913824601 57.190062149111526 L 977.3242820825352 57.295156546653374 L 977.268750666339 57.40000515833659 L 977.210902686967 57.50459749938738 L 977.1507439291688 57.60892311065881 L 977.0882804087702 57.71297155967667 L 977.023518372071 57.81673244168278 L 976.9564642952209 57.9201953806754 L 976.887124883572 58.023350030446856 L 976.8155070710073 58.12618607561813 L 976.7416180192487 58.228693232670395 L 976.6654651171397 58.33086125097338 L 976.5870559799068 58.43267991381038 L 976.5063984483987 58.534139039399975 L 976.4235005883013 58.63522848191415 L 976.3383706893314 58.73593813249288 L 976.251017264408 58.83625792025505 L 976.1614490488008 58.93617781330548 L 976.0696749992568 59.03568781973813 L 975.9757042931044 59.13477798863527 L 975.8795463273358 59.23343841106261 L 975.7812107176677 59.33165922106009 L 975.6807072975789 59.42943059662859 L 975.5780461173277 59.52674276071202 L 975.4732374429467 59.623585982175065 L 975.3662917552158 59.71995057677627 L 975.2572197486148 59.8158269081365 L 975.1460323302535 59.9112053887025 L 975.032740618781 60.006076480705694 L 974.9173559432741 60.10043069711595 L 974.799889842104 60.194258602590246 L 974.6803540617831 60.287550814416235 L 974.5587605557898 60.38029800345047 L 974.4351214833735 60.47249089505134 L 974.309449208338 60.564120270006505 L 974.1817562978066 60.655176965454835 L 974.0520555209636 60.74565187580266 L 973.9203598477786 60.83553595363435 L 973.7866824477094 60.924820210617014 L 973.6510366883845 61.01349571839936 L 973.5134361342666 61.10155360950451 L 973.3738945452967 61.18898507821673 L 973.2324258755174 61.27578138146202 L 973.0890442716776 61.361933839682365 L 972.9437640718185 61.447433837703755 L 972.7965998038386 61.53227282559762 L 972.6475661840425 61.61644231953589 L 972.4966781156676 61.699933902639295 L 972.3439506873952 61.782739225819114 L 972.189399171841 61.86485000861202 L 972.0330390240275 61.94625804000817 L 971.8748858798392 62.02695517927226 L 971.7149555544589 62.1069333567576 L 971.5532640407857 62.18618457471311 L 971.3898275078365 62.26470090808303 L 971.2246622991279 62.34247450529945 L 971.0577849310436 62.419497589067454 L 970.8892120911811 62.49576245714286 L 970.718960636684 62.57126148310241 L 970.5470475925558 62.64598711710643 L 970.3734901499578 62.71993188665378 L 970.1983056644895 62.793088397329136 L 970.0215116544534 62.86544933354239 L 969.8431257991034 62.937007459260215 L 969.6631659368761 63.007755618729675 L 969.4816500636081 63.07768673719379 L 969.2985963307351 63.146793821598976 L 969.1140230434781 63.21506996129438 L 968.9279486590119 63.28250832872294 L 968.74039178462 63.34910218010411 L 968.5513711758333 63.414844856108246 L 968.3609057345554 63.47972978252252 L 968.1690145071716 63.54375047090838 L 967.9757166826448 63.606900519250324 L 967.7810315905963 63.66917361259615 L 967.5849786993731 63.73056352368841 L 967.3875776141009 63.79106411358716 L 967.1888480747239 63.85066933228383 L 966.9888099540301 63.90937321930622 L 966.7874832556652 63.96716990431453 L 966.5848881121311 64.02405360768844 L 966.3810447827733 64.08001864110503 L 966.175973651755 64.13505940810757 L 965.9696952260183 64.18917040466522 L 965.762230133234 64.24234621972344 L 965.5535991197382 64.29458153574504 L 965.3438230484588 64.34587112924193 L 965.1329228968278 64.3962098712975 L 964.9209197546847 64.4455927280795 L 964.7078348221671 64.49401476134341 L 964.4936894075908 64.54147112892625 L 964.2785049253184 64.58795708523081 L 964.0623028936192 64.63346798170019 L 963.845104932516 64.67799926728269 L 963.6269327616241 64.72154648888683 L 963.4078081979785 64.76410529182675 L 963.1877531538531 64.80567142025764 L 962.9667896345691 64.84624071760128 L 962.7449397362941 64.88580912696175 L 962.522225643833 64.92437269153106 L 962.2986696284096 64.96192755498494 L 962.0742940454392 64.9984699618683 L 961.8491213322928 65.0339962579709 L 961.6231740060545 65.06850289069277 L 961.3964746612683 65.10198640939936 L 961.1690459676798 65.13444346576672 L 960.940910667969 65.16587081411626 L 960.7120915754757 65.19626531173934 L 960.4826115719184 65.2256239192115 L 960.2524936051063 65.25394370069648 L 960.0217606866443 65.28122182423974 L 959.7904358896319 65.30745556205163 L 959.558542346356 65.33264229078024 L 959.326103245978 65.35677949177371 L 959.0931418322139 65.37986475133201 L 958.8596814010109 65.40189576094846 L 958.6257452982179 65.42287031754044 L 958.3913569172499 65.44278632366978 L 958.15653969675 65.46164178775246 L 957.9213171182444 65.47943482425778 L 957.6857127037947 65.49616365389691 L 957.4497500136464 65.51182660380084 L 957.2134526438717 65.52642210768764 L 956.9768442240107 65.53994870601906 L 956.7399484147081 65.55240504614655 L 956.5027889053476 65.56378988244649 L 956.2653894116825 65.57410207644472 L 956.027773673464 65.58334059693043 L 955.7899654520684 65.59150452005929 L 955.5519885281193 65.59859302944577 L 955.3138666991109 65.60460541624485 L 955.0756237770278 65.60954107922286 L 954.8372835859634 65.61339952481762 L 954.5988699597384 65.61618036718778 L 954.3604067395166 65.61788332825142 L 954.1219177714215 65.61850823771385 L 953.883426904151 65.61805503308466 L 953.6449579865931 65.61652375968391 L 953.4065348654409 65.61391457063768 L 953.1681813828079 65.61022772686269 L 952.9299213738435 65.60546359704027 L 952.6917786643503 65.5996226575794 L 952.4537770684007 65.59270549256917 L 952.2159403859558 65.58471279372033 L 951.9782924004859 65.5756453602961 L 951.7408568765914 65.56550409903224 L 951.5036575576266 65.55429002404645 L 951.2667181633262 65.5420042567369 L 951.0300623874319 65.52864802567004 L 950.7937138953241 65.51422266645788 L 950.557696321655 65.4987296216243 L 950.3220332679855 65.48217044046089 L 950.0867483004243 65.46454677887196 L 949.8518649472724 65.44586039920898 L 949.617406696669 65.42611317009434 L 949.3833969942442 65.4053070662345 L 949.1498592407728 65.38344416822251 L 948.9168167898359 65.36052666232996 L 948.6842929454842 65.33655684028832 L 948.4523109599083 65.31153709905983 L 948.2208940311137 65.28546994059778 L 947.9900653006002 65.25835797159627 L 947.7598478510487 65.23020390322961 L 947.5302647040121 65.2010105508812 L 947.3013388176138 65.1707808338619 L 947.0730930842518 65.13951777511826 L 946.8455503283092 65.10722450093009 L 946.6187333038719 65.0739042405979 L 946.3926646924534 65.03956032611994 L 946.1673671007264 65.00419619185907 L 945.9428630582623 64.96781537419922 L 945.7191750152784 64.93042151119185 L 945.4963253403926 64.89201834219209 L 945.2743363183864 64.85260970748485 L 945.0532301479774 64.81219954790075 L 944.833028939598 64.77079190442208 L 944.6137547131858 64.72839091777868 L 944.3954293959806 64.68500082803388 L 944.1780748203322 64.64062597416049 L 943.9617127215172 64.59527079360693 L 943.7463647355648 64.54893982185345 L 943.5320523970946 64.50163769195862 L 943.3187971371615 64.45336913409601 L 943.106620281114 64.40413897508118 L 942.8955430464607 64.35395213788901 L 942.6855865407493 64.3028136411614 L 942.4767717594555 64.25072859870541 L 942.2691195838831 64.19770221898187 L 942.062650779077 64.14373980458457 L 941.8573859917453 64.08884675170998 L 941.6533457481959 64.03302854961765 L 941.4505504522829 63.97629078008127 L 941.2490203833671 63.918639116830505 L 941.0487756942874 63.860079324983644 L 940.8498364093458 63.80061726047107 L 940.652222422305 63.74025886944969 L 940.4559534943992 63.67901018770829 L 940.2610492523573 63.61687734006403 L 940.0675291864414 63.553866539749876 L 939.8754126484966 63.48998408779335 L 939.6847188500169 63.42523637238643 L 939.4954668602229 63.359629868246685 L 939.307675604156 63.29317113596986 L 939.1213638607853 63.225866821373806 L 938.9365502611299 63.15772365483389 L 938.7532532863959 63.088748450609984 L 938.5714912661276 63.018948106165034 L 938.3912823763761 62.94832960147531 L 938.2126446378799 62.87689999833243 L 938.0355959142639 62.8046664396372 L 937.8601539102531 62.73163614868528 L 937.6863361699017 62.65781642844491 L 937.5141600748387 62.583214660826606 L 937.3436428425304 62.50783830594495 L 937.1748015245578 62.43169490137262 L 937.0076530049118 62.35479206138663 L 936.8422139983055 62.27713747620688 L 936.6785010485013 62.19873891122719 L 936.516530526658 62.119604206238705 L 936.3563186296927 62.039741274646005 L 936.1978813786616 61.95915810267567 L 936.0412346171578 61.87786274857777 L 935.8863940097269 61.79586334181995 L 935.7333750403006 61.71316808227457 L 935.5821930106483 61.62978523939866 L 935.432863038847 61.54572315140702 L 935.2854000577695 61.4609902244384 L 935.139818813591 61.375594931714886 L 934.9961338643145 61.2895458126946 L 934.8543595783153 61.202851472217716 L 934.7145101329039 61.11552057964606 L 934.5765995129082 61.02756186799609 L 934.4406415092751 60.93898413306569 L 934.306649717692 60.84979623255453 L 934.1746375372263 60.76000708517834 L 934.044618168986 60.669625669777034 L 933.9166046147994 60.57866102441683 L 933.7906096759156 60.487122245486475 L 933.6666459517232 60.39501848678756 L 933.5447258384916 60.302358958619216 L 933.4248615281301 60.20915292685704 L 933.3070650069702 60.11540971202653 L 933.1913480545658 60.02113868837107 L 933.0777222425155 59.926349282914444 L 932.9661989333061 59.83105097451821 L 932.8567892791755 59.735253292933805 L 932.7495042209978 59.63896581784955 L 932.6443544871895 59.54219817793271 L 932.5413505926365 59.444960049866644 L 932.4405028376422 59.34726115738312 L 932.341821306898 59.24911127028998 L 932.2453158684751 59.15052020349414 L 932.1509961728367 59.05149781602011 L 932.0588716518737 58.95205401002413 L 931.9689515179615 58.85219872980392 L 931.8812447630386 58.75194196080431 L 931.7957601577073 58.651293728618626 L 931.712506250357 58.550264097986236 L 931.631491366309 58.448863171785995 L 931.5527236069842 58.34710109002604 L 931.4762108490929 58.244988028829724 L 931.4019607438471 58.14253419941809 L 931.3299807161956 58.03974984708869 L 931.2602779640808 57.93664525019112 L 931.1928594577204 57.833230719099134 L 931.1277319389084 57.72951659517967 L 931.0649019203424 57.62551324975868 L 931.0043756849723 57.521231083084054 L 930.9461592853708 57.41668052328555 L 930.8902585431296 57.311872025332015 L 930.8366790482761 57.20681606998592 L 930.7854261587153 57.10152316275524 L 930.7365049996935 56.996003832842966 L 930.6899204632856 56.89026863209415 L 930.6456772079067 56.78432813394075 L 930.6037796578453 56.6781929323443 L 930.5642320028215 56.57187364073653 L 930.5270381975679 56.465380890957974 L 930.492201961434 56.35872533219489 L 930.4597267780143 56.25191762991426 L 930.4296158948003 56.144968464797316 L 930.4018723228551 56.037888531671435 L 930.3764988365127 55.930688538440705 L 930.3534979731007 55.823379205015115 L 930.3328720326863 55.71597126223858 L 930.3146230778461 55.60847545081588 L 930.2987529334607 55.50090252023857 L 930.2852631865312 55.39326322771006 L 930.274155186021 55.28556833706991 L 930.2654300427209 55.17782861771744 L 930.259088629138 55.0700548435348 L 930.2551315794084 54.96225779180959 L 930.2535592892336 54.85444824215717" stroke-miterlimit="10" stroke-width="2.7769845610000004" stroke-dasharray=""/></g><g><g/><text fill="black" stroke="none" font-family="sans-serif" font-size="11pt" font-style="normal" font-weight="normal" text-decoration="normal" x="931.6941963064778" y="83.14618479699999" text-anchor="start" dominant-baseline="alphabetic" xml:space="preserve">SQLite</text></g></g><g><path fill="white" stroke="black" paint-order="fill stroke markers" d=" M 73.50841485 96.21434743699999 L 89.84361814999998 96.21434743699999 L 89.84361814999998 664.6794222769998 L 73.50841485 664.6794222769998 L 73.50841485 96.21434743699999" stroke-miterlimit="10" stroke-width="1.3612669416666667" stroke-dasharray=""/><path fill="white" stroke="black" paint-order="fill stroke markers" d=" M 457.6774451954427 141.952916677 L 474.0126484954427 141.952916677 L 474.0126484954427 187.691485917 L 457.6774451954427 187.691485917 L 457.6774451954427 141.952916677" stroke-miterlimit="10" stroke-width="1.3612669416666667" stroke-dasharray=""/><path fill="white" stroke="black" paint-order="fill stroke markers" d=" M 599.2610134341796 233.430055157 L 615.5962167341797 233.430055157 L 615.5962167341797 324.907193637 L 599.2610134341796 324.907193637 L 599.2610134341796 233.430055157" stroke-miterlimit="10" stroke-width="1.3612669416666667" stroke-dasharray=""/><path fill="white" stroke="black" paint-order="fill stroke markers" d=" M 457.6774451954427 370.645762877 L 474.0126484954427 370.645762877 L 474.0126484954427 460.489381027 L 457.6774451954427 460.489381027 L 457.6774451954427 370.645762877" stroke-miterlimit="10" stroke-width="1.3612669416666667" stroke-dasharray=""/><path fill="white" stroke="black" paint-order="fill stroke markers" d=" M 599.2610134341796 506.227950267 L 615.5962167341797 506.227950267 L 615.5962167341797 597.7050887469999 L 599.2610134341796 597.7050887469999 L 599.2610134341796 506.227950267" stroke-miterlimit="10" stroke-width="1.3612669416666667" stroke-dasharray=""/><g><g><rect fill="white" stroke="none" x="159.68538850682293" y="120.717152387" width="228.15028633179688" height="21.23576429"/></g><text fill="black" stroke="none" font-family="sans-serif" font-size="11pt" font-style="normal" font-weight="normal" text-decoration="normal" x="162.13566900182292" y="135.418835357" text-anchor="start" dominant-baseline="alphabetic" xml:space="preserve">gRPC call for ServerReflectionInfo</text></g><g><path fill="none" stroke="black" paint-order="fill stroke markers" d=" M 89.84361814999998 141.952916677 L 444.22812781177606 141.952916677" stroke-miterlimit="10" stroke-width="1.3612669416666667" stroke-dasharray=""/><g transform="translate(457.6774451954427,141.952916677) translate(-457.6774451954427,-141.952916677)"><path fill="black" stroke="none" paint-order="stroke fill markers" d=" M 444.06477577877604 135.14658196866665 L 457.6774451954427 141.952916677 L 444.06477577877604 148.75925138533333 Z"/></g></g><g><g><rect fill="white" stroke="none" x="152.34823793309246" y="166.455721627" width="242.82458747925781" height="21.23576429"/></g><text fill="black" stroke="none" font-family="sans-serif" font-size="11pt" font-style="normal" font-weight="normal" text-decoration="normal" x="154.79851842809245" y="181.15740459699998" text-anchor="start" dominant-baseline="alphabetic" xml:space="preserve">Return list of implemented proto files</text></g><g><path fill="none" stroke="black" paint-order="fill stroke markers" d=" M 457.6774451954427 187.691485917 L 103.29293553366665 187.691485917" stroke-miterlimit="10" stroke-width="1.3612669416666667" stroke-dasharray="6.53408132"/><g transform="translate(89.84361814999998,187.691485917) translate(-89.84361814999998,-187.691485917)"><path fill="black" stroke="none" paint-order="stroke fill markers" d=" M 103.45628756666665 180.88515120866666 L 89.84361814999998 187.691485917 L 103.45628756666665 194.49782062533333 Z"/></g></g><g><g><rect fill="white" stroke="none" x="245.15147377365233" y="212.194290867" width="198.801684036875" height="21.23576429"/></g><text fill="black" stroke="none" font-family="sans-serif" font-size="11pt" font-style="normal" font-weight="normal" text-decoration="normal" x="247.60175426865231" y="226.89597383699999" text-anchor="start" dominant-baseline="alphabetic" xml:space="preserve">gRPC call for RegisterService</text></g><g><path fill="none" stroke="black" paint-order="fill stroke markers" d=" M 89.84361814999998 233.430055157 L 585.811696050513 233.430055157" stroke-miterlimit="10" stroke-width="1.3612669416666667" stroke-dasharray=""/><g transform="translate(599.2610134341796,233.430055157) translate(-599.2610134341796,-233.430055157)"><path fill="black" stroke="none" paint-order="stroke fill markers" d=" M 585.648344017513 226.62372044866666 L 599.2610134341796 233.430055157 L 585.648344017513 240.23638986533334 Z"/></g></g><g><g><rect fill="white" stroke="none" x="691.1466510314323" y="257.93286010699995" width="187.40584053101563" height="21.23576429"/></g><text fill="black" stroke="none" font-family="sans-serif" font-size="11pt" font-style="normal" font-weight="normal" text-decoration="normal" x="693.5969315264323" y="272.63454307699993" text-anchor="start" dominant-baseline="alphabetic" xml:space="preserve">Insert implemented services</text></g><g><path fill="none" stroke="black" paint-order="fill stroke markers" d=" M 615.5962167341797 279.168624397 L 940.6536084760338 279.168624397" stroke-miterlimit="10" stroke-width="1.3612669416666667" stroke-dasharray=""/><g transform="translate(954.1029258597005,279.168624397) translate(-954.1029258597005,-279.168624397)"><path fill="black" stroke="none" paint-order="stroke fill markers" d=" M 940.4902564430338 272.36228968866664 L 954.1029258597005 279.168624397 L 940.4902564430338 285.9749591053333 Z"/></g></g><g><g><rect fill="white" stroke="none" x="285.06911445968746" y="303.67142934699996" width="118.96640266480469" height="21.23576429"/></g><text fill="black" stroke="none" font-family="sans-serif" font-size="11pt" font-style="normal" font-weight="normal" text-decoration="normal" x="287.51939495468747" y="318.37311231699994" text-anchor="start" dominant-baseline="alphabetic" xml:space="preserve">gRPC Status: OK</text></g><g><path fill="none" stroke="black" paint-order="fill stroke markers" d=" M 599.2610134341796 324.907193637 L 103.29293553366665 324.907193637" stroke-miterlimit="10" stroke-width="1.3612669416666667" stroke-dasharray="6.53408132"/><g transform="translate(89.84361814999998,324.907193637) translate(-89.84361814999998,-324.907193637)"><path fill="black" stroke="none" paint-order="stroke fill markers" d=" M 103.45628756666665 318.10085892866664 L 89.84361814999998 324.907193637 L 103.45628756666665 331.7135283453333 Z"/></g></g><g><g><rect fill="white" stroke="none" x="109.17360872166667" y="349.40999858699996" width="329.17384590210935" height="21.23576429"/></g><text fill="black" stroke="none" font-family="sans-serif" font-size="11pt" font-style="normal" font-weight="normal" text-decoration="normal" x="111.62388921666667" y="364.11168155699994" text-anchor="start" dominant-baseline="alphabetic" xml:space="preserve">gRPC Health Check call for implemented services</text></g><g><path fill="none" stroke="black" paint-order="fill stroke markers" d=" M 89.84361814999998 370.645762877 L 444.22812781177606 370.645762877" stroke-miterlimit="10" stroke-width="1.3612669416666667" stroke-dasharray=""/><g transform="translate(457.6774451954427,370.645762877) translate(-457.6774451954427,-370.645762877)"><path fill="black" stroke="none" paint-order="stroke fill markers" d=" M 444.06477577877604 363.83942816866664 L 457.6774451954427 370.645762877 L 444.06477577877604 377.4520975853333 Z"/></g></g><g><g><rect fill="white" stroke="none" x="126.42121309178386" y="439.25361673699996" width="294.678637161875" height="21.23576429"/></g><text fill="black" stroke="none" font-family="sans-serif" font-size="11pt" font-style="normal" font-weight="normal" text-decoration="normal" x="128.87149358678386" y="453.95529970699994" text-anchor="start" dominant-baseline="alphabetic" xml:space="preserve">gRPC Health Check Status: NOT_SERVING</text></g><g><path fill="none" stroke="black" paint-order="fill stroke markers" d=" M 457.6774451954427 460.489381027 L 103.29293553366665 460.489381027" stroke-miterlimit="10" stroke-width="1.3612669416666667" stroke-dasharray="6.53408132"/><g transform="translate(89.84361814999998,460.489381027) translate(-89.84361814999998,-460.489381027)"><path fill="black" stroke="none" paint-order="stroke fill markers" d=" M 103.45628756666665 453.68304631866664 L 89.84361814999998 460.489381027 L 103.45628756666665 467.2957157353333 Z"/></g></g><g><g><rect fill="white" stroke="none" x="238.63394142501951" y="484.99218597699996" width="211.83674873414063" height="21.23576429"/></g><text fill="black" stroke="none" font-family="sans-serif" font-size="11pt" font-style="normal" font-weight="normal" text-decoration="normal" x="241.0842219200195" y="499.69386894699994" text-anchor="start" dominant-baseline="alphabetic" xml:space="preserve">gRPC call for UnregisterService</text></g><g><path fill="none" stroke="black" paint-order="fill stroke markers" d=" M 89.84361814999998 506.227950267 L 585.811696050513 506.227950267" stroke-miterlimit="10" stroke-width="1.3612669416666667" stroke-dasharray=""/><g transform="translate(599.2610134341796,506.227950267) translate(-599.2610134341796,-506.227950267)"><path fill="black" stroke="none" paint-order="stroke fill markers" d=" M 585.648344017513 499.42161555866664 L 599.2610134341796 506.227950267 L 585.648344017513 513.0342849753333 Z"/></g></g><g><g><rect fill="white" stroke="none" x="634.9262073058463" y="530.7307552169999" width="299.8467279821875" height="21.23576429"/></g><text fill="black" stroke="none" font-family="sans-serif" font-size="11pt" font-style="normal" font-weight="normal" text-decoration="normal" x="637.3764878008463" y="545.4324381869999" text-anchor="start" dominant-baseline="alphabetic" xml:space="preserve">Set IsAlive as False of implemented services </text></g><g><path fill="none" stroke="black" paint-order="fill stroke markers" d=" M 615.5962167341797 551.9665195069999 L 940.6536084760338 551.9665195069999" stroke-miterlimit="10" stroke-width="1.3612669416666667" stroke-dasharray=""/><g transform="translate(954.1029258597005,551.9665195069999) translate(-954.1029258597005,-551.9665195069999)"><path fill="black" stroke="none" paint-order="stroke fill markers" d=" M 940.4902564430338 545.1601847986666 L 954.1029258597005 551.9665195069999 L 940.4902564430338 558.7728542153333 Z"/></g></g><g><g><rect fill="white" stroke="none" x="285.06911445968746" y="576.4693244569999" width="118.96640266480469" height="21.23576429"/></g><text fill="black" stroke="none" font-family="sans-serif" font-size="11pt" font-style="normal" font-weight="normal" text-decoration="normal" x="287.51939495468747" y="591.1710074269998" text-anchor="start" dominant-baseline="alphabetic" xml:space="preserve">gRPC Status: OK</text></g><g><path fill="none" stroke="black" paint-order="fill stroke markers" d=" M 599.2610134341796 597.7050887469999 L 103.29293553366665 597.7050887469999" stroke-miterlimit="10" stroke-width="1.3612669416666667" stroke-dasharray="6.53408132"/><g transform="translate(89.84361814999998,597.7050887469999) translate(-89.84361814999998,-597.7050887469999)"><path fill="black" stroke="none" paint-order="stroke fill markers" d=" M 103.45628756666665 590.8987540386665 L 89.84361814999998 597.7050887469999 L 103.45628756666665 604.5114234553332 Z"/></g></g><g><g><rect fill="white" stroke="none" x="109.17360872166664" y="622.2078936969998" width="87.19830574097656" height="21.23576429"/></g><text fill="black" stroke="none" font-family="sans-serif" font-size="11pt" font-style="normal" font-weight="normal" text-decoration="normal" x="111.62388921666664" y="636.9095766669998" text-anchor="start" dominant-baseline="alphabetic" xml:space="preserve">Exit Status 1</text></g><g><path fill="none" stroke="black" paint-order="fill stroke markers" d=" M 89.84361814999998 643.4436579869998 L 155.18443134999998 643.4436579869998 L 155.18443134999998 664.6794222769998 L 103.29293553366665 664.6794222769998" stroke-miterlimit="10" stroke-width="1.3612669416666667" stroke-dasharray=""/><g transform="translate(89.84361814999998,664.6794222769998) translate(-89.84361814999998,-664.6794222769998)"><path fill="black" stroke="none" paint-order="stroke fill markers" d=" M 103.45628756666665 657.8730875686665 L 89.84361814999998 664.6794222769998 L 103.45628756666665 671.4857569853332 Z"/></g></g><g><g/><path fill="none" stroke="black" paint-order="fill stroke markers" d=" M 16.33520329999999 395.14856782699997 L 1011.2761374097005 395.14856782699997 L 1011.2761374097005 689.1822272269999 L 16.33520329999999 689.1822272269999 L 16.33520329999999 395.14856782699997 Z" stroke-miterlimit="10" stroke-width="2.3336004714285714" stroke-dasharray=""/><path fill="white" stroke="black" paint-order="fill stroke markers" d=" M 16.33520329999999 395.14856782699997 L 16.33520329999999 414.750811787 L 80.30658951425781 414.750811787 L 90.10771149425781 404.94968980699997 L 90.10771149425781 395.14856782699997 L 16.33520329999999 395.14856782699997" stroke-miterlimit="10" stroke-width="2.3336004714285714" stroke-dasharray=""/><text fill="black" stroke="none" font-family="sans-serif" font-size="8.8pt" font-style="normal" font-weight="bold" text-decoration="normal" x="32.67040659999999" y="408.216730467" text-anchor="start" dominant-baseline="alphabetic" xml:space="preserve">break</text><text fill="black" stroke="none" font-family="sans-serif" font-size="8.8pt" font-style="normal" font-weight="bold" text-decoration="normal" x="106.44291479425782" y="408.216730467" text-anchor="start" dominant-baseline="alphabetic" xml:space="preserve">[exception]</text></g></g><g/><g/><g/><g/></g></svg>